<svg fill="currentColor" fill-rule="evenodd" id="Capa_1" enable-background="new 0 0 512 512" height="512" viewBox="0 0 512 512" width="512" xmlns="http://www.w3.org/2000/svg"><circle cx="156" cy="70" r="10"/><circle cx="116" cy="70" r="10"/><circle cx="196" cy="70" r="10"/><circle cx="76" cy="70" r="10"/><path d="m502 471h-16v-110h6c5.523 0 10-4.477 10-10s-4.477-10-10-10h-6v-60c0-27.57-22.43-50-50-50h-83.897l-26.103-15.662v-54.338c0-8.598-2.841-17.121-8-24l-24-32c-1.889-2.518-4.853-4-8-4h-23.07l-27.567-73.511c-1.464-3.903-5.195-6.489-9.363-6.489h-190c-5.523 0-10 4.477-10 10v180h-6c-5.523 0-10 4.477-10 10s4.477 10 10 10h6v110h-6c-5.523 0-10 4.477-10 10s4.477 10 10 10h6v110h-16c-5.523 0-10 4.477-10 10s4.477 10 10 10h492c5.523 0 10-4.477 10-10s-4.477-10-10-10zm-36-190v60h-20v-40c0-16.542-13.458-30-30-30-12.362 0-23 7.518-27.587 18.22 0 0-9.278-31.8-9.372-32.047-.815-2.146-1.817-4.21-2.982-6.173h59.941c16.542 0 30 13.458 30 30zm-60 60v-40c0-5.514 4.486-10 10-10s10 4.486 10 10v40zm-360-300h173.07l22.5 60h-195.57zm0 80h235l21 28c2.58 3.439 4 7.701 4 12v50h-20v-40c0-16.542-13.458-30-30-30s-30 13.458-30 30v40h-20v-40c0-16.542-13.458-30-30-30s-30 13.458-30 30v40h-20v-40c0-16.542-13.458-30-30-30s-30 13.458-30 30v40h-20zm220 50v40h-20v-40c0-5.514 4.486-10 10-10s10 4.486 10 10zm-80 0v40h-20v-40c0-5.514 4.486-10 10-10s10 4.486 10 10zm-80 0v40h-20v-40c0-5.514 4.486-10 10-10s10 4.486 10 10zm-60 60h260v20c0 5.51 4.49 10 10 10s10-4.49 10-10v-12.338l25.937 15.562c3.732 2.24 6.661 5.681 8.278 9.718l22.455 77.058h-30.076l-7.704-17.98c-1.58-3.69-5.19-6.07-9.2-6.07-1.35 0-2.68.28-3.93.82-5.07 2.17-7.43 8.06-5.26 13.13l4.332 10.1h-44.832v-60c0-16.542-13.458-30-30-30s-30 13.458-30 30v60h-20v-60c0-16.542-13.458-30-30-30s-30 13.458-30 30v60h-20v-60c0-16.542-13.458-30-30-30s-30 13.458-30 30v60h-20zm220 50v60h-20v-60c0-5.514 4.486-10 10-10s10 4.486 10 10zm-80 0v60h-20v-60c0-5.514 4.486-10 10-10s10 4.486 10 10zm-80 0v60h-20v-60c0-5.514 4.486-10 10-10s10 4.486 10 10zm0 190h-20v-60c0-5.514 4.486-10 10-10s10 4.486 10 10zm80 0h-20v-60c0-5.514 4.486-10 10-10s10 4.486 10 10zm80 0h-20v-60c0-5.514 4.486-10 10-10s10 4.486 10 10zm80 0h-20v-60c0-5.514 4.486-10 10-10s10 4.486 10 10zm80 0h-20v-60c0-5.514 4.486-10 10-10s10 4.486 10 10zm40 0h-20v-60c0-16.542-13.458-30-30-30s-30 13.458-30 30v60h-20v-60c0-16.542-13.458-30-30-30s-30 13.458-30 30v60h-20v-60c0-16.542-13.458-30-30-30s-30 13.458-30 30v60h-20v-60c0-16.542-13.458-30-30-30s-30 13.458-30 30v60h-20v-60c0-16.542-13.458-30-30-30s-30 13.458-30 30v60h-20v-110h420z"/><path d="m319.94 300.19c1.36 0 2.68-.27 3.94-.81 2.45-1.05 4.35-3 5.34-5.47 1-2.48.96-5.2-.09-7.66-1.58-3.68-5.19-6.06-9.2-6.06-1.35 0-2.67.27-3.93.81-2.46 1.05-4.35 3-5.35 5.48-.99 2.48-.95 5.2.1 7.65 1.58 3.68 5.18 6.06 9.19 6.06z"/></svg>