<svg fill="currentColor" fill-rule="evenodd" id="Capa_1" enable-background="new 0 0 512 512" height="512" viewBox="0 0 512 512" width="512" xmlns="http://www.w3.org/2000/svg"><path d="m148 145.017h-26c-5.523 0-10 4.477-10 9.999 0 5.523 4.477 9.999 10 9.999h26c5.523 0 10-4.477 10-9.999s-4.477-9.999-10-9.999z"/><path d="m260 145.017c-5.51 0-10 4.489-10 9.999 0 5.509 4.49 9.999 10 9.999s10-4.49 10-9.999-4.49-9.999-10-9.999z"/><path d="m194 313.147c-5.51 0-10 4.49-10 9.999 0 5.52 4.49 9.999 10 9.999s10-4.48 10-9.999c0-5.509-4.49-9.999-10-9.999z"/><path d="m511.994 414.625c-.004-.118-.01-.235-.019-.352l-9.931-136.034 5.894-49.498c1.337-11.23-2.006-22.007-9.411-30.345-7.552-8.503-18.599-13.38-30.309-13.38h-11.785c-3.649-7.689-10.728-21.589-20.295-35.629-20.061-29.44-40.637-44.366-61.157-44.366h-37.709c-5.579-6.186-13.624-9.999-22.291-9.999h-114.579c-1.374-1.268-2.877-2.421-4.503-3.437-8.829-5.517-19.688-6.088-29.048-1.524l-27.78 13.545-23.155-9.122c-8.29-3.266-17.53-2.692-25.354 1.572-7.823 4.264-13.312 11.719-15.06 20.456l-13.702 68.505h-1.82c-27.557 0-49.987 22.418-50 49.973l-.013 26.39s-9.947 152.962-9.947 152.974c-.152 2.331.564 4.723 1.952 6.598 1.865 2.515 4.894 4.048 8.027 4.048h492.002c3.029 0 5.975-1.434 7.849-3.815 1.45-1.841 2.227-4.216 2.144-6.56zm-77.887-229.61h-64.106v-8.999c0-13.995-9.323-25.853-22.085-29.692l-2.882-21.305h29.947c22.774 0 46.613 36.163 59.126 59.996zm-224.107-69.996h104.981c4.216 0 8.003 2.696 9.414 6.627l3.161 23.371h-27.556c-5.51 0-10 4.489-10 9.999 0 5.509 4.49 9.999 10 9.999h39c6.065 0 11 4.934 11 10.999v8.999h-140zm-114.885 5.413c.798-3.987 3.488-5.984 5.02-6.819 1.533-.835 4.669-2.015 8.451-.524l27.248 10.734c2.609 1.027 5.528.913 8.048-.316l31.735-15.473c4.497-2.193 8.269-.374 9.683.508 1.413.883 4.7 3.477 4.7 8.479v67.993h-107.802zm8.488 151.35-18.946 49.66c-.514 1.348-.73 2.79-.635 4.229l2.622 39.333h-11.44l-11.392-8.137c-4.322-3.087-10.303-2.257-13.621 1.89l-8 9.999c-3.45 4.312-2.751 10.605 1.562 14.055 1.844 1.475 4.05 2.192 6.241 2.192 2.934 0 5.84-1.285 7.815-3.753l2.084-2.606 6.294 4.496c1.696 1.211 3.729 1.863 5.813 1.863h15.978l1.333 19.999h-68.641l3.83-58.896 39.352-49.906c3.419-4.337 2.676-10.624-1.661-14.043-4.338-3.42-10.625-2.675-14.044 1.661l-21.357 27.085 3.157-48.548c.014-.214.021-.429.021-.644l.007-14.134 13.777 3.179c.757.174 1.513.258 2.257.258 4.552 0 8.668-3.129 9.735-7.753 1.242-5.381-2.114-10.75-7.496-11.992l-17.254-3.981c3.418-12.808 15.118-22.273 28.986-22.273h41.569l6.23 36.831c1.688 9.983.336 20.117-3.911 29.308-.096.206-.184.416-.265.628zm35.937 75.782 6.318 57.437h-36.503l-5.232-78.476 18.049-47.307c5.828-12.781 7.67-26.85 5.326-40.708l-5.665-33.496h36.742l6.224 36.634c1.686 9.92.335 19.992-3.905 29.126l-13.597 29.292c-6.887 14.838-9.568 31.268-7.757 47.498zm26.439 57.437-2.2-19.999h.221c13.15 0 25.45-6.45 32.91-17.259 1.52-2.19 2.09-4.85 1.61-7.48-.47-2.63-1.95-4.909-4.14-6.429-1.68-1.17-3.65-1.78-5.69-1.78-3.28 0-6.36 1.61-8.23 4.31-3.76 5.41-9.91 8.64-16.46 8.64h-2.42l-2.161-19.642c-1.407-12.608.674-25.359 6.02-36.876l13.596-29.292c5.953-12.823 7.848-26.965 5.481-40.895l-5.655-33.285h45.139v120.993c0 .373.021.746.063 1.117l8.751 77.878h-66.835zm120.149-162.581-8.9 55.206c-5.275 32.718-3.784 65.587 4.433 97.694l2.478 9.682h-31.199l-8.94-79.556v-120.432h57.848l-15.038 35.055c-.322.753-.552 1.542-.682 2.351zm83.534 137.561-5.653 25.02h-59.226l-3.747-14.64c-7.531-29.432-8.898-59.562-4.064-89.553l8.704-53.988 17.935-41.807h38.747l-16.947 110.993h-20.411c-5.522 0-10 4.477-10 9.999s4.478 9.999 10 9.999h23.534l18.453 28.77c2.872 4.478 3.847 10.02 2.675 15.207zm58.125-29.352-6.168 24.673c-2.554 10.213-1.014 20.763 4.173 29.7h-41.28l4.658-20.613c2.345-10.372.396-21.456-5.347-30.41l-19.367-30.194 18.134-118.771h29.411v37.083c0 .707.075 1.413.224 2.104l16.085 74.721c2.241 10.412 2.06 21.375-.523 31.707zm32.637 54.372c-6.202 0-11.947-2.804-15.764-7.691-3.816-4.888-5.143-11.141-3.639-17.158l6.168-24.673c3.321-13.282 3.554-27.378.673-40.765l-15.861-73.681v-36.019h36.217c5.999 0 11.595 2.428 15.355 6.661 3.558 4.005 5.157 9.227 4.506 14.702l-3.03 25.444-8.878-12.576c-3.186-4.512-9.425-5.588-13.937-2.403-4.513 3.184-5.588 9.424-2.403 13.935l22.48 31.845 8.933 122.379z"/></svg>