<svg fill="currentColor" fill-rule="evenodd" id="Capa_1" enable-background="new 0 0 512 512" height="512" viewBox="0 0 512 512" width="512" xmlns="http://www.w3.org/2000/svg"><path d="m426 492c-5.51 0-10 4.49-10 10s4.49 10 10 10 10-4.49 10-10-4.49-10-10-10z"/><path d="m386 492h-9.416l9.4-165.433c.011-.189.016-.378.016-.567 0-58.693-7.349-113.411-21.843-162.633-14.629-49.681-33.565-83.32-46.875-102.792-28.354-41.482-54.861-58.353-55.976-59.051-3.246-2.032-7.368-2.032-10.614 0-1.115.698-27.622 17.569-55.976 59.051-13.309 19.472-32.246 53.111-46.875 102.792-14.492 49.222-21.841 103.939-21.841 162.633 0 .189.005.378.016.567l9.4 165.433h-49.416c-5.51 0-10 4.49-10 10s4.49 10 10 10h300c5.51 0 10-4.49 10-10s-4.49-10-10-10zm-233.855-58.132-1.255-22.097c26.013 10.242 84.595 35.164 129.723 68.077l16.48 12.152h-33.896c-37.387-26.039-83.369-46.779-111.052-58.132zm-1.84-43.759c.323-6.307 1.228-17.477 6.336-31.686 14.953 12.553 33.942 24.904 48.877 33.983-2.077 6.412-3.994 12.594-5.773 18.546-22.083-10.203-40.373-17.409-49.44-20.843zm17.928-49.556c2.892-7.168 6.206-14.986 9.988-23.425 14.04 11.186 28.655 20.86 43.486 29.718-3.521 9.107-6.724 17.826-9.618 26.08-14.662-9.152-29.322-19.636-43.856-32.373zm-15.61-14.649c-2.2-2.208-4.395-4.493-6.586-6.821.109-10.572.47-20.799 1.047-30.691 4.983 5.362 10.094 10.417 15.309 15.21-.247.539-7.072 15.846-9.77 22.302zm65.398 93.79c1.611-5.475 3.342-11.154 5.213-17.036 12.899 7.127 45.01 23.281 48.27 24.931-1.742 6.745-3.241 13.117-4.532 19.081-16.288-10.08-33.14-19.148-48.951-26.976zm11.63-36.377c2.868-8.306 6.068-17.127 9.604-26.369 9.544 5.319 40.499 21.815 46.324 24.976-3.295 9.214-6.148 17.933-8.587 26.03-2.115-1.066-33.593-16.902-47.341-24.637zm47.635-28.531c-45.104-24.028-91.706-48.853-127.914-94.365 1.056-9.991 2.33-19.596 3.792-28.807 34.904 52.981 82.867 78.532 133.522 105.518l.003.001c25.508 13.589 51.837 27.616 76.075 45.53l-1.376 24.218c-25.486-20.869-54.019-36.069-84.102-52.095zm-98.636-219.408c11.849 12.295 29.242 29.235 50.538 46.769-4.84 7.644-9.465 15.106-13.827 22.33-15.35-14.547-29.634-31.782-42.412-53.517 1.87-5.447 3.778-10.639 5.701-15.582zm18.015-39.351c16.518 18.204 84.047 88.976 158.728 116.226 1.423 7.212 2.738 14.689 3.921 22.438-77.245-23.876-146.378-91.747-172.177-119.424 3.254-7.119 6.463-13.527 9.528-19.24zm169.082 211.77c-5.758-4.654-11.577-9.049-17.438-13.226 4.749-8.131 9.829-16.358 15.245-24.649 1.077 12.076 1.83 24.697 2.193 37.875zm-34.009-24.488c-11.837-7.697-42.516-26.026-46.025-28.138 4.349-8.136 8.933-16.387 13.737-24.718 16.402 9 33.64 16.804 51.356 22.516-6.864 10.233-13.217 20.368-19.068 30.34zm-22.894 42.993c-4.265-2.295-8.52-4.565-12.752-6.819l-.003-.002c-11.304-6.022-22.464-11.971-33.346-18.174 4.269-9.236 8.828-18.698 13.718-28.362 3.196 1.921 33.499 20.019 45.428 27.82-4.711 8.688-9.042 17.21-13.045 25.537zm-63.909-131.665c11.598 8.849 24.085 17.599 37.246 25.738-4.723 8.191-9.244 16.307-13.538 24.315-13.08-8.248-25.811-16.93-38.005-26.83 4.499-7.497 9.265-15.246 14.297-23.223zm-24.516 40.609c12.695 10.115 25.775 18.954 38.938 27.225-4.943 9.727-9.56 19.257-13.89 28.568-14.012-8.739-27.388-18.257-39.81-29.308 4.52-8.396 9.425-17.222 14.762-26.485zm105.98 100.684c3.723-7.797 7.733-15.739 12.069-23.805 9.228 6.656 18.296 13.836 27.067 21.774l-1.432 25.212c-12.368-8.462-25.023-16.052-37.704-23.181zm23.735-147.317c-6.374-2.77-12.68-5.848-18.887-9.169 3.765-5.598 7.633-11.212 11.617-16.834 2.546 8.16 4.988 16.827 7.27 26.003zm-36.232-19.194c-12.583-7.801-24.579-16.354-35.673-25.001 4.163-5.997 8.448-12.083 12.889-18.277 11.903 8.181 24.985 15.533 38.593 20.466-5.473 7.624-10.725 15.23-15.809 22.812zm15.157-44.61c-9.065-4.009-17.889-9.188-26.167-14.868 3.766-5.109 7.632-10.284 11.582-15.511 4.623 8.498 9.604 18.613 14.585 30.379zm-42.15-26.89c-9.332-7.622-17.465-15.304-23.805-21.701h40.086c-5.604 7.344-11.032 14.58-16.281 21.701zm-30.891-75.575c6.715 5.242 19.102 16.051 33.239 33.874h-66.502c14.09-17.729 26.536-28.6 33.263-33.874zm-20.304 53.874c5.561 6.403 20.003 22.274 39.389 37.94-4.278 5.964-8.412 11.828-12.438 17.614-32.546-27.518-54.227-52.579-54.626-53.045l-.755-.886c.353-.553.702-1.097 1.044-1.624h27.386zm-30.761 145.815c-5.082 8.753-9.792 17.139-14.168 25.16-9.067-9.76-17.471-20.651-25.034-33.075l-7.108-11.676c2.021-9.269 4.216-18.067 6.534-26.398 12.287 18.107 25.695 33.085 39.776 45.989zm-49.505 269.967-2.042-35.931c9.237 3.923 19.862 8.649 31.142 14.067-1.961 9.285-3.298 16.675-4.156 21.864zm47.636-12.599c7.587 3.95 15.274 8.159 22.86 12.598h-25.246c.608-3.461 1.394-7.688 2.386-12.598zm153.468 12.599h-25.758l-38.354-28.28c-2.436-1.777-4.912-3.528-7.415-5.258 1.302-6.542 2.871-13.686 4.79-21.404 23.391 12.445 45.832 26.153 67.277 45.447zm-61.38-74.72c2.36-8.07 5.071-16.58 8.167-25.453 18.18 10.468 35.321 21.62 50.793 35.104l5.828 5.079-1.448 25.481c-20.591-16.515-42.008-29.008-63.34-40.211z"/></svg>