<svg fill="currentColor" fill-rule="evenodd" id="Capa_1" enable-background="new 0 0 512 512" height="512" viewBox="0 0 512 512" width="512" xmlns="http://www.w3.org/2000/svg"><path d="m401 291.883v-253.524c0-15.699-11.795-28.549-27.438-29.891l-98.346-8.432c-.283-.024-.568-.036-.853-.036-35.908 0-67.629 24.182-77.142 58.807l-7.519 27.369c-11.576 3.337-20.296 13.453-21.505 26.097-4.049 42.341-24.07 67.266-38.688 85.464-10.341 12.874-18.509 23.042-18.509 35.263 0 12.834 4.906 29.8 27.322 40.199l-13.065 47.556c-4.168 15.17-1.088 31.046 8.45 43.558 7.512 9.855 18.102 16.388 29.947 18.724l-26.982 57.819c-7.265 15.568-6.093 33.513 3.136 48.003 9.228 14.49 24.994 23.141 42.173 23.141h189.002c9.705 0 18.852-4.726 24.468-12.641 5.444-7.672 6.962-17.486 4.13-26.424l-26.083-147.379 11.745-7.268c9.73-5.248 15.757-15.328 15.757-26.405zm-20.986 185.253c.094.53.23 1.052.409 1.561 1.084 3.099.617 6.412-1.283 9.089-1.9 2.678-4.873 4.214-8.156 4.214h-23.447l-8.847-40.98c-.49-2.25-1.74-4.28-3.54-5.71-2.32-1.85-5.43-2.59-8.35-1.96-5.39 1.16-8.82 6.5-7.66 11.89l7.936 36.76h-145.095c-10.308 0-19.767-5.19-25.304-13.885s-6.24-19.461-1.881-28.802l29.589-63.405s49.986 8.092 50.524 8.092c16.058 0 32.069-3.93 46.302-11.365.215-.112.426-.232.632-.36l73.349-45.391zm.986-185.253c0 3.737-2.058 7.133-5.37 8.864-.215.112-.426.232-.632.36l-103.36 63.963c-11.075 5.723-23.479 8.802-35.944 8.926 0 0-61.684-9.996-62.222-9.996-9.439 0-18.136-4.306-23.858-11.813s-7.571-17.033-5.07-26.135l.761-2.769s49.125 8.718 49.708 8.718c4.752 0 8.968-3.401 9.833-8.244.971-5.437-2.649-10.631-8.086-11.602l-46.134-8.238 6.763-24.619c10.967 2.267 21.352 2.702 27.611 2.702 1.166 0 47.417-16.602 47.417-16.602 5.19-1.887 7.868-7.625 5.98-12.815s-7.625-7.869-12.815-5.98l-42.31 15.385c-14.313-.205-52.272-3.201-52.272-28.988 0-5.183 6.535-13.318 14.101-22.738 15.286-19.03 38.386-47.788 43.005-96.085.5-5.231 4.784-9.177 9.964-9.177h32.93c5.523 0 10-4.477 10-10s-4.477-10-10-10h-20.234l5.74-20.895c7.098-25.837 30.683-43.921 57.445-44.104l97.902 8.394c5.214.447 9.146 4.73 9.146 9.964v253.524z"/><path d="m314.23 421.84c1.77 1.41 3.98 2.19 6.23 2.19.71 0 1.42-.08 2.12-.23 2.61-.56 4.85-2.11 6.3-4.35 1.44-2.25 1.93-4.92 1.37-7.53-.49-2.25-1.74-4.28-3.54-5.71-2.32-1.85-5.43-2.59-8.35-1.96-2.61.57-4.84 2.11-6.29 4.36-1.45 2.24-1.94 4.92-1.37 7.53.48 2.24 1.74 4.27 3.53 5.7z"/><path d="m261.59 135.667-26-10c-5.156-1.983-10.941.588-12.923 5.744-1.982 5.155.589 10.941 5.744 12.923l26 10c1.181.454 2.394.669 3.588.669 4.018 0 7.807-2.439 9.335-6.413 1.982-5.155-.589-10.941-5.744-12.923z"/><path d="m351 133c-5.51 0-10 4.49-10 10v110c0 5.51 4.49 10 10 10s10-4.49 10-10v-110c0-5.51-4.49-10-10-10z"/><path d="m351 93c-5.51 0-10 4.49-10 10s4.49 10 10 10 10-4.49 10-10-4.49-10-10-10z"/></svg>