<svg fill="currentColor" fill-rule="evenodd" id="Capa_1" enable-background="new 0 0 512 512" height="512" viewBox="0 0 512 512" width="512" xmlns="http://www.w3.org/2000/svg"><path d="m511.54 474.002-17.391-55.335c-4.073-12.959-15.937-21.667-29.522-21.667-3.346 0-6.449-1.549-8.493-4.059-.381-.857-.876-1.651-1.471-2.36-.113-.247-.217-.499-.312-.757l-18.627-50.781c-.186-.503-.41-.991-.673-1.458-8.889-15.803-24.394-26.587-41.917-29.673l-17.134-42.838v-170.074c0-8.215-3.256-15.882-9.169-21.588-5.911-5.704-13.685-8.691-21.916-8.392-16.214.576-28.915 13.956-28.915 30.46v90.52c0 5.514-4.486 10-10 10s-10-4.486-10-10v-111c0-2.164-.702-4.269-2-6l-14-18.667c-5.72-7.626-14.468-12-24-12s-18.28 4.374-24.001 12.001l-1.199 1.599c-1.566 2.088-3.68 2.4-4.8 2.4-1.121 0-3.233-.312-4.8-2.4l-11.2-14.933c-5.636-7.514-14.607-12-24-12-16.542 0-30 13.458-30 30v210.074l-16.77 41.926h-2.854c-20.029 0-38.068 11.895-45.957 30.304l-15.702 36.637c-1.224 2.855-3.754 5.01-6.767 5.763l-20.188 5.047c-9.569 2.392-17.351 9.335-20.813 18.57l-26.312 70.168c-1.151 3.071-.725 6.511 1.144 9.207s4.939 4.304 8.219 4.304h492c3.184 0 6.178-1.516 8.062-4.083s2.433-5.877 1.478-8.915zm-336.255-203.288c.472-1.181.715-2.442.715-3.714v-212c0-5.514 4.486-10 10-10 3.131 0 6.121 1.496 8 4l11.2 14.933c4.956 6.609 12.537 10.4 20.798 10.401h.002c8.261 0 15.843-3.791 20.801-10.401l1.199-1.6c1.906-2.542 4.822-4 8-4s6.094 1.458 8 4l12 16v107.667c0 16.542 13.458 30 30 30 3.506 0 6.87-.61 10-1.72v22.72c0 5.523 4.478 10 10 10s10-4.477 10-10v-50c0-.113 0-91.521 0-91.521 0-5.586 4.318-10.284 9.626-10.473 2.758-.098 5.347.896 7.316 2.796 1.972 1.904 3.058 4.46 3.058 7.198v172c0 1.272.243 2.533.715 3.714l14.515 36.286h-210.459zm-150.855 196.286 21.246-56.656c1.154-3.078 3.748-5.392 6.938-6.189l20.188-5.047c9.038-2.26 16.626-8.722 20.298-17.287l15.702-36.639c4.733-11.045 15.556-18.182 27.574-18.182h246.382c14.176 0 27.317 7.54 34.483 19.729l14.771 40.271h-55.012c-5.522 0-10 4.477-10 10s4.478 10 10 10h64.883c5.755 6.225 13.957 10 22.744 10 4.806 0 9.002 3.08 10.442 7.664l13.306 42.336z"/><path d="m116 427h-40c-5.522 0-10 4.477-10 10s4.478 10 10 10h40c5.522 0 10-4.477 10-10s-4.477-10-10-10z"/><path d="m286 397c0-5.523-4.478-10-10-10h-40c-5.522 0-10 4.477-10 10s4.478 10 10 10h40c5.523 0 10-4.477 10-10z"/><path d="m166 387h-40c-5.522 0-10 4.477-10 10s4.478 10 10 10h40c5.522 0 10-4.477 10-10s-4.477-10-10-10z"/><path d="m236 357c0-5.523-4.478-10-10-10h-40c-5.522 0-10 4.477-10 10s4.478 10 10 10h40c5.523 0 10-4.477 10-10z"/><path d="m346 347h-40c-5.522 0-10 4.477-10 10s4.478 10 10 10h40c5.522 0 10-4.477 10-10s-4.477-10-10-10z"/><path d="m306 427h-40c-5.522 0-10 4.477-10 10s4.478 10 10 10h40c5.522 0 10-4.477 10-10s-4.477-10-10-10z"/><path d="m206 107c-5.522 0-10 4.477-10 10v100c0 5.523 4.478 10 10 10s10-4.477 10-10v-100c0-5.523-4.477-10-10-10z"/><path d="m246 147c-5.51 0-10 4.49-10 10v40c0 5.51 4.49 10 10 10s10-4.49 10-10v-40c0-5.51-4.49-10-10-10z"/><path d="m246 227c-5.51 0-10 4.49-10 10s4.49 10 10 10 10-4.49 10-10-4.49-10-10-10z"/></svg>