<svg fill="currentColor" fill-rule="evenodd" id="Capa_1" enable-background="new 0 0 512 512" height="512" viewBox="0 0 512 512" width="512" xmlns="http://www.w3.org/2000/svg"><circle cx="156" cy="50" r="10"/><circle cx="196" cy="50" r="10"/><circle cx="76" cy="50" r="10"/><circle cx="236" cy="50" r="10"/><circle cx="396" cy="50" r="10"/><circle cx="436" cy="50" r="10"/><circle cx="356" cy="50" r="10"/><circle cx="316" cy="50" r="10"/><circle cx="276" cy="50" r="10"/><circle cx="116" cy="50" r="10"/><path d="m90 452c-5.51 0-10 4.49-10 10s4.49 10 10 10 10-4.49 10-10-4.49-10-10-10z"/><path d="m50 262h80c5.522 0 10-4.477 10-10v-42c0-5.523-4.478-10-10-10h-80c-5.522 0-10 4.477-10 10v42c0 5.523 4.478 10 10 10zm10-42h60v22h-60z"/><path d="m60 432h60c5.522 0 10-4.477 10-10v-92c0-5.523-4.478-10-10-10h-60c-5.522 0-10 4.477-10 10v92c0 5.523 4.478 10 10 10zm10-92h40v72h-40z"/><path d="m422 452c-5.51 0-10 4.49-10 10s4.49 10 10 10 10-4.49 10-10-4.49-10-10-10z"/><path d="m382 262h80c5.522 0 10-4.477 10-10v-42c0-5.523-4.478-10-10-10h-80c-5.522 0-10 4.477-10 10v42c0 5.523 4.478 10 10 10zm10-42h60v22h-60z"/><path d="m392 432h60c5.522 0 10-4.477 10-10v-92c0-5.523-4.478-10-10-10h-60c-5.522 0-10 4.477-10 10v92c0 5.523 4.478 10 10 10zm10-92h40v72h-40z"/><path d="m511.363 86.489-30-80c-1.464-3.903-5.195-6.489-9.363-6.489h-422c-3.788 0-7.25 2.14-8.944 5.528 0 0-40 80-40 80-.689 1.378-1.056 2.93-1.056 4.472v412c0 5.523 4.478 10 10 10h160c5.522 0 10-4.477 10-10v-211.184c.459-2.452 2.932-13.555 11.622-24.65 8.078-10.312 19.021-17.58 32.663-21.797l2.014 8.056c1.112 4.452 5.112 7.575 9.701 7.575h40c4.589 0 8.589-3.123 9.701-7.575l2.002-8.008c36.722 11.489 43.474 41.759 44.297 46.373v211.21c0 5.523 4.478 10 10 10h160c5.522 0 10-4.477 10-10v-412c0-.367-.349-2.742-.637-3.511zm-455.182-66.489h408.89l22.5 60h-461.39zm103.819 432h-30c-5.51 0-10 4.49-10 10s4.49 10 10 10h30v20h-140v-20h30c5.51 0 10-4.49 10-10s-4.49-10-10-10h-30v-152h140zm108.192-212h-24.385l-5-20h34.385zm223.808 212h-30c-5.51 0-10 4.49-10 10s4.49 10 10 10h30v20h-140v-20h30c5.51 0 10-4.49 10-10s-4.49-10-10-10h-30v-152h140zm0-172h-142.161c-2.088-6.72-6.128-16.479-13.717-26.167-8.212-10.484-21.805-22.325-43.561-28.848l3.14-12.56c.747-2.987.076-6.152-1.819-8.58-1.895-2.427-4.803-3.845-7.882-3.845h-60c-3.079 0-5.987 1.418-7.882 3.846-1.896 2.427-2.566 5.592-1.819 8.58l3.137 12.55c-21.76 6.523-35.345 18.373-43.558 28.859-7.589 9.687-11.629 19.446-13.717 26.167h-142.161v-100.002h472zm0-120h-472v-60h472z"/><path d="m136 140c5.52 0 10-4.48 10-10s-4.48-10-10-10c-5.53 0-10 4.48-10 10s4.47 10 10 10z"/><circle cx="176" cy="130" r="10"/><circle cx="96" cy="130" r="10"/><circle cx="56" cy="130" r="10"/><circle cx="216" cy="130" r="10"/><circle cx="296" cy="130" r="10"/><circle cx="456" cy="130" r="10"/><circle cx="416" cy="130" r="10"/><circle cx="256" cy="130" r="10"/><circle cx="336" cy="130" r="10"/><circle cx="376" cy="130" r="10"/></svg>