<svg fill="currentColor" fill-rule="evenodd" id="Capa_1" enable-background="new 0 0 512 512" height="512" viewBox="0 0 512 512" width="512" xmlns="http://www.w3.org/2000/svg"><path d="m510.999 426.639-126-259.998c-1.671-3.449-5.167-5.639-8.999-5.639s-7.328 2.19-8.999 5.639l-37.847 78.097-94.429-168.622c-1.731-3.092-4.97-5.036-8.513-5.111-3.541-.112-6.861 1.73-8.722 4.746l-216 349.998c-1.904 3.085-1.989 6.958-.223 10.124 1.767 3.165 5.108 5.127 8.733 5.127h492c3.444 0 6.645-1.772 8.474-4.69 1.828-2.918 2.027-6.572.525-9.671zm-349.526-5.639h-133.551l104.914-169.999h29.664c5.523 0 10-4.477 10-10s-4.477-10-10-10h-17.32l63.036-102.14-24.343 152.14h-28.373c-5.523 0-10 4.477-10 10s4.477 10 10 10h25.173zm164.527 0h-60v-20h10c5.523 0 10-4.477 10-10v-10h20v10c0 5.523 4.477 10 10 10h10zm20 0v-20c0-11.028-8.972-20-20-20 0-11.028-8.972-20-20-20h-20c-11.028 0-20 8.972-20 20-11.028 0-20 8.972-20 20v20h-64.273l33.6-209.999h25.173c5.523 0 10-4.477 10-10s-4.477-10-10-10h-21.973l12.803-80.016 173.609 310.015zm81.861 0-28-50h17.639c5.523 0 10-4.477 10-10s-4.477-10-10-10h-28.839l-47.593-84.987 7.275-15.012h15.157c5.523 0 10-4.477 10-10s-4.477-10-10-10h-5.465l17.965-37.069 42.195 87.069h-14.695c-5.523 0-10 4.477-10 10s4.477 10 10 10h24.388l58.153 119.999z"/><path d="m125.5 371h-30c-5.523 0-10 4.477-10 10s4.477 10 10 10h30c5.523 0 10-4.477 10-10s-4.477-10-10-10z"/><path d="m240.5 271.001c0 5.523 4.477 10 10 10h30c5.523 0 10-4.477 10-10s-4.477-10-10-10h-30c-5.523 0-10 4.477-10 10z"/><path d="m280.5 331.001c0 5.51 4.49 10 10 10s10-4.49 10-10-4.49-10-10-10-10 4.489-10 10z"/><path d="m250.5 321.001h-20c-5.51 0-10 4.49-10 10s4.49 10 10 10h20c5.51 0 10-4.49 10-10 0-5.511-4.49-10-10-10z"/></svg>