<svg fill="currentColor" fill-rule="evenodd" id="Capa_1" enable-background="new 0 0 512 512" height="512" viewBox="0 0 512 512" width="512" xmlns="http://www.w3.org/2000/svg"><path d="m273.55 212.3c1.71 1.23 3.72 1.88 5.82 1.88 3.22 0 6.26-1.56 8.13-4.18 1.56-2.17 2.18-4.81 1.74-7.45-.43-2.63-1.87-4.94-4.04-6.5-1.71-1.23-3.72-1.87-5.82-1.87-3.22 0-6.26 1.56-8.13 4.17-1.56 2.17-2.18 4.82-1.74 7.45.43 2.64 1.87 4.95 4.04 6.5z"/><path d="m401.838 192.282 8.755-24.053c1.889-5.19-.787-10.928-5.977-12.817l-61.153-22.258c-2.492-.907-5.243-.787-7.646.334s-4.264 3.15-5.171 5.643l-7.448 20.463c-7.597-13.442-18.963-24.494-32.66-31.689 5.626-9.182 8.962-20.575 8.962-32.903 0-6.137-.851-12.417-2.539-18.318l19.611-19.611c3.905-3.905 3.905-10.237 0-14.143-3.905-3.904-10.237-3.904-14.143 0l-14.784 14.784c-2.022-2.683-4.262-5.109-6.68-7.252l8.129-27.64c1.558-5.298-1.474-10.857-6.772-12.416-5.298-1.555-10.857 1.474-12.416 6.772l-6.993 23.776c-2.728-.626-5.54-.954-8.413-.954s-5.685.328-8.413.954l-6.993-23.776c-1.558-5.298-7.114-8.331-12.416-6.772-5.298 1.559-8.33 7.117-6.772 12.416l8.129 27.64c-2.418 2.143-4.658 4.568-6.68 7.252l-14.784-14.784c-3.905-3.904-10.237-3.904-14.143 0-3.905 3.905-3.905 10.237 0 14.143l19.611 19.611c-1.131 3.954-1.909 8.124-2.283 12.463-.17 1.984-.257 3.954-.257 5.855 0 11.957 3.148 23.025 8.47 32.059-5.328 2.642-10.37 5.896-15.045 9.722l-35.044-65.271.164-.526c.949-3.037.396-6.343-1.488-8.906-1.253-1.704-2.999-2.93-4.961-3.57 1.228-3.272 1.903-6.812 1.903-10.507 0-7.255-2.702-18.191-6.724-27.214-7.656-17.183-16.883-20.789-23.274-20.789s-15.618 3.606-23.276 20.786c-4.022 9.023-6.724 19.959-6.724 27.214 0 3.695.676 7.235 1.903 10.507-1.961.64-3.708 1.866-4.961 3.57-1.884 2.563-2.437 5.87-1.488 8.906l25 80c1.305 4.175 5.171 7.017 9.545 7.017 4.213 0 7.948-2.641 9.383-6.565l22.722 42.124c.083.153.17.305.261.454 2.049 3.364 4.658 6.183 7.634 8.413v31.602c-.607.244-1.211.481-1.82.732-5.38 2.25-10.64 5.83-16.55 11.27-7.8 7.25-15.19 16.62-20.81 26.39-6.61 11.69-9.73 21.41-9.82 30.58 0 .725.087 1.443.242 2.144l-2.398 10.392c-2.052 8.892.03 18.087 5.711 25.228s14.172 11.237 23.297 11.237h12.149v73c0 3.524 1.855 6.788 4.883 8.591 1.574.938 3.345 1.409 5.117 1.409v17h-30c-5.523 0-10 4.477-10 10v40c0 5.523 4.477 10 10 10h220c5.523 0 10-4.477 10-10v-40c0-5.523-4.477-10-10-10h-30v-93.707c6.381-8.57 10-19.098 10-29.925v-59.296s17.411 6.337 17.436 6.346c4.972 1.81 10.937-.811 12.817-5.977l8.543-23.472c.4.016.8.031 1.203.031 16.542 0 30-13.458 30-30 .001-9.641-4.574-18.227-11.661-23.719zm-268.338-171.701c4.212 4.061 10 19.48 10 27.419 0 5.514-4.486 10-10 10s-10-4.486-10-10c0-7.939 5.788-23.358 10-27.419zm0 93.893-11.398-36.474h22.796zm190 152.329v61.564c0 9.22-4.354 18.091-11.648 23.731-.332.257-.647.534-.944.83l-34.062 33.968c-7.045 5.235-15.952 7.121-24.534 5.169l-9.281-2.109c-12.835-2.917-26.55-.575-37.69 6.426l-21.841 11.829v-24.891c.076-.052.137-.094.22-.151 7.341-5.042 14.725-10.029 22.311-14.696 6.148-3.782 13.052-8.903 20.099-10.824 5.32-1.45 8.469-6.96 7.02-12.28-2.607-9.57-12.45-7.491-19.13-4.33-8.49 4.06-19.7 11.17-27.4 16.16-1.071.694-2.113 1.375-3.12 2.036 0 0 0-42.732 0-42.735 0 1.179 18.215.452 19.76.31 8.412-.774 16.991-2.556 24.861-5.673 15.282-6.053 27.579-15.878 40.495-25.797 16.013-12.297 34.098-22.054 54.884-18.537zm-10 111.787v73.41h-120v-26.46l21.666-11.734c.213-.115.421-.238.625-.368 6.719-4.296 15.031-5.747 22.808-3.979l9.281 2.109c14.619 3.322 29.808-.032 41.668-9.204.332-.256.647-.534.944-.83zm-59-318.59c9.67 0 18.416 8.206 22.521 20h-45.043c4.107-11.794 12.852-20 22.522-20zm24.733 40c-1.793 16.706-12.391 30-24.733 30s-22.94-13.294-24.733-30zm-128.001 24.784 8.297-26.549 40.056 74.607c.085.159.176.316.269.47 3.011 4.956 1.032 11.586-4.184 14.079-4.535 2.168-9.914.619-12.607-3.597zm12.268 207.216s-12.115 0-12.147 0c-12.238 0-9.298-12.963-7.555-20.483.499-2.082 19.703-.174 19.703.241-.001.006-.001 20.242-.001 20.242zm-15.78-41.76c5.546-13.109 17.692-31.598 31.6-37 16.93-7.01 62.48-17.84 68.98-19.68 5.3-1.52 8.37-7.07 6.85-12.37-1.462-5.099-7.093-8.384-12.37-6.861-5.74 1.66-38.572 9.431-49.28 12.689v-18.721c3.646-.262 7.304-1.192 10.795-2.862 7.614-3.639 13.359-10.366 15.764-18.455 3.483-11.717-2.044-22.092-7.436-32.133 5.736-5.347 12.34-9.449 19.488-12.167 6.599 4.647 14.24 7.32 22.388 7.32 7.836 0 15.207-2.466 21.631-6.788 21.891 8.963 37.37 30.503 37.37 55.546v46.946c-.222-.015-.444-.034-.67-.034-20.316.148-37.894 9.687-53.611 21.792-12.9 9.936-25.547 20.93-40.984 26.11-11.665 3.914-25.084 7.018-36.307 2.171-17.928-7.743-34.274-5.344-34.208-5.503zm205.78 181.76v20h-200v-20zm0-256c0 8.969 3.962 17.026 10.222 22.529l-5.341 14.675-24.88-9.056v-45.39c0-2.663-.146-5.292-.403-7.889l12.922-35.502 42.359 15.417-5.544 15.232c-16.235.357-29.335 13.665-29.335 29.984zm30 10c-5.514 0-10-4.486-10-10s4.486-10 10-10 10 4.486 10 10-4.486 10-10 10z"/><path d="m292.49 316c-2.35 0-4.65.84-6.45 2.37l-26 22c-4.21 3.56-4.73 9.88-1.17 14.09 1.9 2.25 4.68 3.54 7.63 3.54 2.36 0 4.66-.84 6.46-2.37l26-22c4.21-3.56 4.74-9.88 1.17-14.09-1.9-2.25-4.68-3.54-7.64-3.54z"/></svg>