<svg fill="currentColor" fill-rule="evenodd" id="Capa_1" enable-background="new 0 0 512 512" height="512" viewBox="0 0 512 512" width="512" xmlns="http://www.w3.org/2000/svg"><circle cx="156" cy="196.002" r="10"/><circle cx="196" cy="196.002" r="10"/><circle cx="116" cy="196.002" r="10"/><circle cx="76" cy="196.002" r="10"/><circle cx="236" cy="196.002" r="10"/><circle cx="276" cy="196.002" r="10"/><circle cx="396" cy="196.002" r="10"/><circle cx="436" cy="196.002" r="10"/><circle cx="316" cy="196.002" r="10"/><circle cx="356" cy="196.002" r="10"/><path d="m510.091 150.124c-1.882-2.59-4.89-4.123-8.091-4.123h-43.82l32.764-65.528c1.55-3.1 1.384-6.781-.438-9.729s-5.041-4.743-8.507-4.743h-135.999c0-5.523-4.478-10-10-10h-3.436l12.286-23.341c2.572-4.887.695-10.934-4.192-13.506-4.888-2.573-10.935-.695-13.507 4.192l-17.188 32.657h-22.635l3.595-28.76c.685-5.48-3.202-10.478-8.683-11.163-5.472-.689-10.478 3.202-11.163 8.683l-3.905 31.24h-22.344l-3.905-31.24c-.685-5.481-5.689-9.373-11.163-8.683-5.48.685-9.368 5.683-8.683 11.163l3.595 28.76h-22.635l-17.188-32.657c-2.572-4.889-8.621-6.765-13.506-4.192-4.888 2.572-6.764 8.619-4.192 13.506l12.286 23.343h-3.437c-5.523 0-10 4.477-10 10h-136c-3.28 0-6.351 1.608-8.219 4.304s-2.296 6.136-1.144 9.207l24.933 66.488h-35.57c-3.201 0-6.209 1.533-8.09 4.123s-2.41 5.924-1.42 8.968l25.51 78.492v248.415c0 5.523 4.477 10 10 10h40c5.523 0 10-4.477 10-10v-239.999h20v239.999c0 5.523 4.477 10 10 10h40c5.523 0 10-4.477 10-10v-239.999h20v239.999c0 5.523 4.477 10 10 10h40c5.523 0 10-4.477 10-10v-239.999h20v239.999c0 5.523 4.478 10 10 10h40c5.522 0 10-4.477 10-10v-239.999h20v239.999c0 5.523 4.478 10 10 10h40c5.522 0 10-4.477 10-10v-239.999h20v239.999c0 5.523 4.478 10 10 10h40c5.522 0 10-4.477 10-10v-248.413l25.511-78.494c.989-3.045.461-6.379-1.42-8.969zm-44.272-64.122-30 60h-89.819v-20h30c5.51 0 10-4.49 10-10s-4.49-10-10-10h-30v-20zm-169.819-10h30v30h-30zm-110 0h30v30h-30zm0 50h40c5.523 0 10-4.477 10-10v-40h.003 39.994.003v40c0 5.523 4.478 10 10 10h40v20h-140zm-141.57-40h121.57v20h-30c-5.51 0-10 4.49-10 10s4.49 10 10 10h30v20h-99.07zm21.57 389.998h-20v-229.999h20zm80 0h-20v-229.999h20zm80 0h-20v-229.999h20zm80 0h-20v-229.999h20zm80 0h-20v-229.999h20zm80 0h-20v-229.999h20zm2.735-249.999h-425.47l-19.5-60h464.471z"/><path d="m96 126.002c5.51 0 10-4.49 10-10s-4.49-10-10-10-10 4.49-10 10 4.49 10 10 10z"/><path d="m416 126.002c5.51 0 10-4.49 10-10s-4.49-10-10-10-10 4.49-10 10 4.49 10 10 10z"/></svg>