<svg fill="currentColor" fill-rule="evenodd" id="Capa_1" enable-background="new 0 0 512 512" height="512" viewBox="0 0 512 512" width="512" xmlns="http://www.w3.org/2000/svg"><path d="m458.5 94.853c0-2.652-1.055-5.195-2.931-7.071l-70.769-70.711c-3.909-3.904-10.245-3.904-14.154 0l-96.509 96.429c-5.902-.983-11.96-1.5-18.137-1.5-.318 0-.632.014-.949.016.678-1.367 1.05-2.88 1.05-4.435 0-2.652-1.055-5.195-2.931-7.071l-97.662-97.581c-1.877-1.875-4.423-2.929-7.077-2.929-2.655 0-5.2 1.054-7.077 2.929l-70.769 70.711c-3.908 3.905-3.908 10.237 0 14.143l86.364 86.292c-5.806 11.923-9.519 25.04-10.654 38.879l-89.863 89.789c-3.908 3.905-3.908 10.237 0 14.143 0 0 70.603 70.545 70.769 70.711 6.731 6.725 13.612.543 18.71-4.551v68.954c0 5.522 4.481 10 10.008 10h7.809s-7.598 37.957-7.614 38.039c-1.204 6.015 3.695 11.961 9.814 11.961h180.148c6.17 0 11.021-5.937 9.814-11.961l-7.616-38.039h7.809c5.527 0 10.008-4.478 10.008-10v-47.668c1.708-.445 3.286-1.326 4.556-2.594l70.768-70.711c3.909-3.905 3.909-10.237 0-14.143l-75.324-75.262v-19.622c0-9.403-1.194-18.531-3.427-27.247l92.906-92.829c1.875-1.876 2.93-4.419 2.93-7.071zm-80.778-56.569 14.154 14.142-83.507 83.438-14.154-14.142zm-98.483 96.759 14.976 14.964-25.055 25.035c-3.977-1.946-8.442-3.042-13.16-3.042s-9.183 1.096-13.159 3.042l-25.056-25.035 14.951-14.939c7.426-1.986 15.219-3.068 23.264-3.068 8.033 0 15.822 1.062 23.239 3.043zm12.146 116.788.169.169h-71.107l.164-.164c.002-.002.003-.003.005-.005l22.677-22.659c3.862 1.81 8.167 2.828 12.707 2.828s8.845-1.018 12.707-2.828zm-116.062-63.54c2.561 0 5.123-.977 7.077-2.929l21.231-21.213 25.174 25.154c-1.812 3.859-2.83 8.16-2.83 12.697 0 4.714 1.097 9.176 3.044 13.149l-25.388 25.368-35.385-35.356c-.196-.196-.404-.378-.615-.556 1.137-5.777 2.829-11.356 5.018-16.683.874.242 1.773.369 2.674.369zm74.12 21.246c-2.11-1.835-3.452-4.53-3.452-7.537 0-5.514 4.49-10 10.008-10s10.008 4.486 10.008 10-4.49 10-10.008 10c-2.474 0-4.736-.906-6.485-2.397-.035-.105-.076-.207-.107-.315.008.084.026.166.036.249zm-101.012-185.394 83.508 83.438-28.308 28.284-83.508-83.438zm-42.462 42.426 83.508 83.438-14.154 14.143-83.507-83.439zm55.2 159.806 28.308 28.284-83.508 83.438-28.307-28.284zm-26.892 140.007-14.154-14.142 83.508-83.438 14.154 14.142zm81.69 125.618h-37.833l6.005-30h31.828zm60.049 0h-40.033v-30h40.033zm20.017 0v-30h31.828l6.005 30zm-130.107-50v-78.956l73.09-73.03c3.908-3.905 3.908-10.237 0-14.143l-3.876-3.871h41.719s-17.989 17.974-18.029 18.014c-3.876 3.873-3.868 10.276 0 14.143l87.244 87.172v50.671zm197.643-61.477-83.507-83.438 28.307-28.284 83.507 83.438zm42.461-42.426-83.507-83.438 14.154-14.142 83.507 83.438zm-62.276-118.793c-3.908-3.905-10.244-3.904-14.154 0l-21.231 21.213-25.389-25.368c1.947-3.973 3.044-8.435 3.044-13.149 0-4.536-1.018-8.838-2.83-12.696l25.174-25.154 34.662 34.634c1.951 7.29 3.001 14.942 3.035 22.83zm7.076-41.013-28.307-28.284 83.507-83.438 28.307 28.284z"/><ellipse cx="256" cy="412" rx="10.008" ry="10"/><ellipse cx="256" cy="372" rx="10.008" ry="10"/><path d="m305.528 378.838c-1.749-5.239-7.415-8.072-12.66-6.325-5.244 1.747-8.078 7.41-6.33 12.649 0 0 9.995 29.96 10.008 30 1.694 5.076 7.57 8.021 12.66 6.325 5.244-1.747 8.078-7.41 6.33-12.649z"/><path d="m217.258 373.63c-5.107-1.495-10.867 1.482-12.431 6.77 0 0-8.456 28.743-8.467 28.78-1.537 5.224 1.561 10.884 6.776 12.41 5.142 1.505 10.871-1.478 12.42-6.77 0 0 8.461-28.724 8.477-28.779 1.526-5.18-1.617-10.901-6.775-12.411z"/><path d="m228.547 335.25c-.921-.271-1.872-.41-2.823-.41-4.372 0-8.361 2.99-9.598 7.18-1.561 5.29 1.481 10.86 6.776 12.42 5.208 1.534 10.903-1.568 12.43-6.779.751-2.561.461-5.261-.821-7.61-1.28-2.341-3.392-4.051-5.964-4.801z"/></svg>