<svg fill="currentColor" fill-rule="evenodd" id="Capa_1" enable-background="new 0 0 512 512" height="512" viewBox="0 0 512 512" width="512" xmlns="http://www.w3.org/2000/svg"><path d="m426 492c-5.51 0-10 4.49-10 10s4.49 10 10 10 10-4.49 10-10-4.49-10-10-10z"/><path d="m395.079 230.455 20.705-77.273c.867.232 1.738.343 2.595.343 4.415 0 8.456-2.946 9.653-7.414 1.43-5.334-1.736-10.818-7.071-12.247l-38.637-10.353 18.118-67.614c.867.232 1.738.343 2.595.343 4.415 0 8.456-2.946 9.653-7.414 1.43-5.334-1.736-10.818-7.071-12.248l-135.231-36.235c-5.336-1.429-10.818 1.735-12.248 7.071-1.43 5.334 1.736 10.818 7.071 12.248l-18.118 67.615-38.637-10.353c-5.335-1.429-10.818 1.736-12.248 7.071s1.736 10.818 7.071 12.247h.001l-20.706 77.274c-5.334-1.429-10.818 1.736-12.247 7.071-1.429 5.334 1.736 10.818 7.071 12.247l-20.705 77.274c-5.335-1.432-10.818 1.736-12.247 7.071-1.43 5.334 1.736 10.818 7.071 12.247l-20.706 77.274c-5.335-1.429-10.818 1.736-12.247 7.071-1.429 5.334 1.736 10.818 7.071 12.247l.369.099-23.992 105.883h-16.012c-5.51 0-10 4.49-10 10s4.49 10 10 10h300c5.51 0 10-4.49 10-10s-4.49-10-10-10h-63.285l15.082-49.134.342.092c.867.232 1.737.343 2.594.343 4.415 0 8.456-2.947 9.653-7.415 1.429-5.335-1.737-10.818-7.071-12.247l20.705-77.274c.867.232 1.738.343 2.595.343 4.415 0 8.456-2.947 9.653-7.414 1.43-5.335-1.736-10.818-7.071-12.248h-.001l20.706-77.274c.867.232 1.738.343 2.595.343 4.415 0 8.456-2.946 9.653-7.414 1.429-5.333-1.737-10.816-7.071-12.246zm-30.113 35.105c-2.772-1.9-5.876-3.337-9.218-4.232-7.202-1.93-14.699-1.139-21.297 2.206-4.041-6.196-10.14-10.629-17.341-12.559-7.416-1.987-14.938-.998-21.302 2.226-3.898-5.974-9.919-10.591-17.335-12.579-7.202-1.93-14.699-1.139-21.297 2.206-4.041-6.196-10.14-10.629-17.34-12.559-7.206-1.932-14.71-1.138-21.311 2.213-3.899-5.967-9.916-10.58-17.326-12.566-3.386-.907-6.794-1.189-10.105-.927l5.622-20.98 173.867 46.587zm-156.188 80.62c2.58.691 4.737 2.346 6.072 4.659s1.69 5.008.999 7.588l-7.765 28.977-19.318-5.176 7.764-28.977c1.428-5.326 6.928-8.497 12.248-7.071zm31.049 11.352c2.313-1.335 5.006-1.691 7.588-.999 5.326 1.427 8.499 6.921 7.072 12.247l-7.765 28.978-19.319-5.177 7.765-28.977c.691-2.58 2.346-4.737 4.659-6.072zm38.637 10.352c2.313-1.335 5.008-1.691 7.588-.999 5.326 1.427 8.499 6.921 7.071 12.247l-7.765 28.977-19.318-5.176 7.765-28.978c.692-2.579 2.346-4.735 4.659-6.071zm-101.252-19.809-7.765 28.977-19.318-5.176 7.765-28.977c.691-2.58 2.346-4.736 4.659-6.072s5.008-1.691 7.588-.999c5.326 1.427 8.499 6.921 7.071 12.247zm146.784 70.388-19.318-5.176 7.764-28.977c1.427-5.326 6.927-8.496 12.248-7.071 2.58.691 4.736 2.346 6.072 4.659 1.334 2.31 1.689 5.001 1.001 7.579zm5.87-60.543c-7.201-1.93-14.699-1.139-21.297 2.206-4.042-6.196-10.14-10.629-17.34-12.559-7.206-1.931-14.71-1.139-21.311 2.213-3.899-5.967-9.916-10.58-17.326-12.565-7.204-1.93-14.709-1.138-21.31 2.213-3.899-5.967-9.916-10.58-17.326-12.566-7.207-1.931-14.71-1.138-21.311 2.213-3.899-5.967-9.915-10.58-17.326-12.565-3.342-.896-6.749-1.203-10.1-.944l5.617-20.962 173.866 46.587-5.617 20.962c-2.773-1.901-5.877-3.337-9.219-4.233zm-107.961-215.277c5.326 1.427 8.499 6.922 7.072 12.248l-7.765 28.978-19.319-5.176 7.765-28.979c1.428-5.326 6.922-8.5 12.247-7.071zm31.049 11.352c2.313-1.335 5.009-1.691 7.588-.999 2.58.691 4.737 2.346 6.072 4.659s1.69 5.008.999 7.588l-7.765 28.978-19.318-5.176 7.765-28.978c.691-2.58 2.346-4.737 4.659-6.072zm46.225 9.353c5.326 1.427 8.499 6.921 7.071 12.247l-7.765 28.978-19.318-5.176 7.764-28.978c1.428-5.326 6.924-8.495 12.248-7.071zm31.049 11.352c2.314-1.335 5.009-1.69 7.588-.999 2.58.691 4.737 2.346 6.072 4.659s1.69 5.008.999 7.588l-7.765 28.977-19.318-5.176 7.765-28.977c.691-2.58 2.346-4.736 4.659-6.072zm46.225 9.354c2.58.691 4.737 2.346 6.072 4.659s1.69 5.007.999 7.587l-7.765 28.979-19.318-5.176 7.764-28.977c1.428-5.328 6.926-8.498 12.248-7.072zm-192.677 62.252c1.427-5.326 6.919-8.499 12.247-7.071 2.58.691 4.737 2.346 6.072 4.659s1.69 5.008.999 7.588l-7.765 28.977-19.318-5.176zm50.885 3.282c2.58.691 4.736 2.346 6.072 4.659 1.335 2.313 1.69 5.008.999 7.588l-7.765 28.978-19.318-5.176 7.764-28.977c1.427-5.327 6.925-8.494 12.248-7.072zm38.636 10.353c5.326 1.427 8.499 6.921 7.071 12.247l-7.765 28.977-19.318-5.176 7.764-28.977c1.429-5.327 6.926-8.497 12.248-7.071zm38.637 10.352c5.326 1.427 8.499 6.921 7.071 12.248l-7.765 28.977-19.318-5.176 7.765-28.977c1.427-5.327 6.919-8.5 12.247-7.072zm37.944 51.578-19.318-5.176 7.764-28.977c1.427-5.326 6.926-8.497 12.248-7.071 2.58.691 4.737 2.346 6.072 4.659 1.334 2.311 1.69 5.004 1 7.581zm40.966-152.886c-2.736-1.882-5.828-3.342-9.214-4.25-7.411-1.986-14.928-.999-21.288 2.219-4.041-6.203-10.143-10.641-17.349-12.572-7.2-1.93-14.698-1.139-21.296 2.206-4.042-6.196-10.14-10.63-17.341-12.559-7.411-1.985-14.928-.999-21.288 2.22-4.041-6.203-10.143-10.641-17.349-12.572-7.206-1.932-14.709-1.139-21.311 2.213-3.899-5.967-9.916-10.58-17.327-12.566-3.386-.907-6.794-1.188-10.104-.926l5.622-20.98 173.866 46.587zm-107.008-102.922c5.326 1.427 8.499 6.921 7.071 12.247l-5.176 19.318-19.319-5.176 5.177-19.319c1.427-5.326 6.924-8.495 12.247-7.07zm31.049 11.352c2.314-1.335 5.008-1.69 7.588-.999s4.737 2.346 6.072 4.659 1.69 5.008.999 7.588l-5.177 19.319-19.318-5.176 5.176-19.318c.692-2.582 2.347-4.738 4.66-6.073zm46.225 9.353c2.58.691 4.737 2.346 6.072 4.659 1.335 2.312 1.69 5.004 1 7.583l-5.178 19.324-19.318-5.176 5.176-19.318c1.428-5.327 6.927-8.499 12.248-7.072zm14.395-15.086c-2.772-1.9-5.876-3.337-9.219-4.232-7.411-1.985-14.928-.999-21.288 2.219-4.041-6.203-10.143-10.641-17.349-12.572s-14.71-1.138-21.311 2.213c-3.899-5.967-9.916-10.58-17.326-12.566-3.386-.907-6.794-1.189-10.104-.927l5.622-20.98 96.592 25.882zm-185.537 383.337c-.028.105-.055.211-.08.317l-8.55 36.664h-20.193l9.548-42.317c1.494-5.229 6.934-8.323 12.203-6.911 2.58.691 4.736 2.346 6.072 4.66 1.336 2.313 1.691 5.008 1 7.587zm19.354 5.046c.711-2.522 2.349-4.628 4.624-5.941 2.313-1.335 5.008-1.691 7.587-.999 2.58.691 4.737 2.346 6.072 4.659s1.69 5.008.999 7.588c-.019.068-.036.137-.053.205l-6.483 26.423h-20.194zm33.34 31.935 5.285-21.537c.705-2.542 2.348-4.666 4.636-5.987 2.314-1.335 5.009-1.69 7.588-.999 5.326 1.427 8.499 6.921 7.072 12.245l-4.366 16.278zm40.922 0 2.977-11.099c4.281-15.978-5.235-32.461-21.213-36.742-7.416-1.987-14.938-.998-21.301 2.225-3.898-5.974-9.92-10.591-17.336-12.578-7.205-1.93-14.708-1.139-21.309 2.212-3.899-5.967-9.917-10.579-17.327-12.565-7.739-2.075-15.825-1.01-22.765 2.997s-11.904 10.476-13.978 18.216c-.035.128-.066.258-.096.387l-10.594 46.947h-18.122l22.817-100.703 173.128 46.389-16.671 54.314z"/></svg>