<svg id="Capa_1" enable-background="new 0 0 512 512" height="512" viewBox="0 0 512 512" width="512" xmlns="http://www.w3.org/2000/svg"><path d="m466 492c-5.51 0-10 4.48-10 10 0 5.51 4.49 10 10 10s10-4.49 10-10c0-5.52-4.49-10-10-10z"/><path d="m485.754.732c-3.772-1.529-8.101-.617-10.935 2.309l-29.965 30.918c-12.646 3.31-75.342 18.041-188.854 18.041-113.5 0-176.184-14.725-188.845-18.039l-29.975-30.921c-2.834-2.924-7.159-3.838-10.935-2.308-3.775 1.53-6.245 5.196-6.245 9.269v46.492c0 15.422 10.333 29.23 25.131 33.579 0 0 3.372 1.002 4.869 1.415v41.424c0 4.353 2.815 8.206 6.962 9.528l19.715 6.285c.174.056.349.106.524.152 1.044.271 9.59 2.46 23.798 5.332v57.791h-29.999c-5.523 0-10 4.477-10 10v40c0 5.523 4.477 10 10 10h30v159.999h-10c-5.523 0-10 4.477-10 10v50h-35c-5.523 0-10 4.477-10 10s4.477 10 10 10h160c5.523 0 10-4.477 10-10s-4.477-10-10-10h-25v-50c0-5.523-4.477-10-10-10h-10v-160h190v159.999h-10c-5.523 0-10 4.477-10 10v50.003h-25c-5.51 0-10 4.48-10 10 0 5.51 4.49 10 10 10h120c5.51 0 10-4.49 10-10 0-3.695-2.017-6.916-5-8.647v-51.356c0-5.523-4.477-10-10-10h-10v-159.999h30c5.522 0 10-4.477 10-10v-40c0-5.523-4.478-10-10-10h-30v-57.79c14.209-2.873 22.754-5.062 23.798-5.333.176-.046.351-.096.524-.152l19.714-6.285c4.147-1.322 6.963-5.175 6.963-9.528v-41.423c1.495-.413 4.85-1.408 4.85-1.408 14.808-4.343 25.151-18.153 25.151-33.585v-46.493c0-4.074-2.471-7.74-6.246-9.269zm-404.754 251.266v-20h20v20zm80 239.998h-60v-40h60zm-40-59.999v-274.033c6.147 1.071 12.832 2.162 20 3.229v270.804zm40-179.999v-20h190v20zm0-39.999v-48.078c16.698 2.074 35.234 3.863 55 4.952v43.126zm75 0v-59.999h40v59.999zm60 0v-43.124c19.764-1.089 38.303-2.878 55-4.951v48.075zm115 279.997h-60v-40h60zm-40-59.999v-270.803c7.166-1.066 13.854-2.157 20-3.228v274.031zm60-199.998v20h-20v-20zm11-106.395-12.485 3.98c-4.964 1.273-60.412 15.148-133.515 19.268v-6.852c0-5.523-4.477-10-10-10h-60c-5.523 0-10 4.477-10 10v6.849c-73.1-4.12-128.551-17.991-133.515-19.264l-12.485-3.981v-29.397c30.58 6.33 92.006 15.793 186 15.793s155.42-9.462 186-15.793zm30-69.11c0 6.614-4.433 12.533-10.779 14.394l-2.129.625c-.047.014-.093.027-.139.042-2.701.834-67.705 20.445-202.953 20.445s-200.252-19.611-202.953-20.446c-.045-.014-.089-.027-.134-.041l-2.143-.629c-6.341-1.864-10.77-7.782-10.77-14.391v-21.81l14.696 15.16c1.187 1.225 2.668 2.125 4.301 2.616 2.654.798 66.499 19.541 197.003 19.541 131.217 0 196.4-19.357 197.044-19.553 1.622-.493 3.092-1.391 4.271-2.608l14.685-15.152z"/></svg>