<svg id="Capa_1" enable-background="new 0 0 512 512" height="512" viewBox="0 0 512 512" width="512" xmlns="http://www.w3.org/2000/svg"><path d="m502 452h-12.605l-24.945-92.654c4.744-6.575 7.55-14.637 7.55-23.346 0-7.715-2.201-14.922-6-21.039v-157.922c3.799-6.117 6-13.324 6-21.039 0-22.056-17.944-40-40-40-1.878 0-3.725.132-5.535.384l-135.108-75.06c-6.719-12.67-20.044-21.324-35.357-21.324s-28.638 8.654-35.357 21.324l-135.114 75.063c-1.808-.252-3.653-.387-5.529-.387-22.056 0-40 17.944-40 40 0 7.715 2.201 14.922 6 21.039v157.922c-3.799 6.117-6 13.324-6 21.039 0 8.709 2.806 16.771 7.551 23.346l-24.946 92.654h-12.605c-5.523 0-10 4.477-10 10v40c0 5.523 4.477 10 10 10h70c5.523 0 10-4.477 10-10v-40c0-4.411-2.859-8.147-6.823-9.476l18.319-68.041 104.504 58.058v9.459c-5.523 0-10 4.477-10 10v40c0 5.523 4.477 10 10 10h100c5.523 0 10-4.477 10-10v-40c0-5.523-4.477-10-10-10v-9.459l104.505-58.058 18.319 68.041c-3.964 1.329-6.824 5.065-6.824 9.476v40c0 5.523 4.477 10 10 10h70c5.523 0 10-4.477 10-10v-40c0-5.523-4.477-10-10-10zm-33.318 0h-19.288l-5.385-20h19.288zm-182.682-20.893v20.893h-33.482zm-60 13.866v-48.36l47.763 18.556zm14.658-64.121 45.342-22.672v40.287zm-14.658-15.032v-63.02l50.925 37.557zm38.653-59.364c7.54-.925 14.721-3.025 21.347-6.127v21.87zm-8.653-19.456c-28.122 0-51-22.878-51-51s22.878-51 51-51 51 22.878 51 51-22.878 51-51 51zm-176-111c2.041 0 4.042-.167 6-.466v120.928c-1.958-.298-3.96-.462-6-.462-4.924 0-9.64.9-14 2.534v-125.068c4.36 1.634 9.076 2.534 14 2.534zm352 120c-2.04 0-4.042.163-6 .459v-120.921c1.958.299 3.96.462 6 .462 4.924 0 9.64-.9 14-2.534v125.068c-4.36-1.634-9.076-2.534-14-2.534zm-105.359-67.144 79.359-45.817v103.922l-79.213-45.733c.126-1.728.213-3.468.213-5.228 0-2.411-.123-4.794-.359-7.144zm75.266-66.548-80.37 46.401c-2.602-6.225-6.07-11.997-10.246-17.178l79.878-46.118 2.296 1.275c1.626 5.853 4.547 11.17 8.442 15.62zm-105.994 15.008c-3.133-2.138-6.449-4.023-9.913-5.645v-84.685l84.785 47.103zm-29.913-98.582v86.984c-3.269-.463-6.605-.718-10-.718s-6.731.255-10 .718v-86.984c3.197.826 6.548 1.266 10 1.266s6.803-.44 10-1.266zm-145.169 66.679 79.878 46.118c-4.176 5.182-7.644 10.953-10.246 17.178l-80.37-46.401c3.895-4.45 6.816-9.767 8.442-15.62zm20.384-11.325 84.785-47.102v84.685c-3.464 1.622-6.78 3.507-9.913 5.645zm-61.215 181.912c11.028 0 20 8.972 20 20s-8.972 20-20 20-20-8.972-20-20 8.972-20 20-20zm26-132.961 79.359 45.818c-.236 2.35-.359 4.733-.359 7.144 0 1.76.087 3.5.213 5.228l-79.213 45.732zm2.895 125.344 80.925-46.722c2.45 6.292 5.763 12.153 9.808 17.431l-80.564 46.513-.535-.297c-1.787-6.436-5.141-12.225-9.634-16.925zm97.105-9.875v75.395l-66.55-36.972zm100 0 66.55 38.423-66.55 36.972zm86.935 27.098-80.564-46.513c4.045-5.278 7.359-11.139 9.808-17.431l80.925 46.722c-4.493 4.699-7.846 10.488-9.635 16.926zm19.065 10.394c0-11.028 8.972-20 20-20s20 8.972 20 20-8.972 20-20 20-20-8.972-20-20zm40-200c0 11.028-8.972 20-20 20s-20-8.972-20-20 8.972-20 20-20 20 8.972 20 20zm-58.154-11.979-106.531-59.184c4.151-5.221 7.023-11.495 8.148-18.353l108.996 60.553c-4.853 4.62-8.554 10.44-10.613 16.984zm-137.846-104.021c11.028 0 20 8.972 20 20s-8.972 20-20 20-20-8.972-20-20 8.972-20 20-20zm-39.463 26.484c1.125 6.858 3.997 13.132 8.148 18.353l-106.535 59.186c-2.059-6.544-5.751-12.368-10.604-16.988zm-136.537 69.516c11.028 0 20 8.972 20 20s-8.972 20-20 20-20-8.972-20-20 8.972-20 20-20zm-31.298 316h19.288l-5.385 20h-19.287zm21.298 60h-50v-20h50zm3.375-80h-19.288l10.522-39.083c4.741 1.983 9.939 3.083 15.391 3.083 1.045 0 2.078-.053 3.103-.132zm34.168-47.036c4.855-4.62 8.551-10.442 10.609-16.985l87.848 48.804v22.879zm188.457 127.036h-80v-20h80zm10-95.217 87.847-48.804c2.06 6.543 5.755 12.365 10.611 16.984l-98.458 54.699zm122.897-20.915c1.025.079 2.058.132 3.103.132 5.452 0 10.65-1.1 15.391-3.083l10.522 39.083h-19.288zm63.103 116.132h-50v-20h50z"/><path d="m256 205c-5.51 0-10 4.49-10 10s4.49 10 10 10h.01.03c4.65 0 8.82 2.97 10.36 7.4 1.39 4.02 5.19 6.73 9.45 6.73 1.11 0 2.21-.19 3.27-.55 5.21-1.81 7.98-7.51 6.18-12.72-4.3-12.46-16.08-20.84-29.3-20.86z"/><path d="m256 247c-2.67 0-5.18 1.04-7.07 2.93s-2.93 4.4-2.93 7.07c0 5.51 4.49 10 10 10 5.52 0 10-4.49 10-10s-4.48-10-10-10z"/></svg>