<svg id="Capa_1" enable-background="new 0 0 512 512" height="512" viewBox="0 0 512 512" width="512" xmlns="http://www.w3.org/2000/svg"><path d="m502 386h-30v-70c0-5.523-4.477-10-10-10h-30v-70c0-5.523-4.477-10-10-10h-30v-70c0-5.523-4.477-10-10-10h-36v-110c0-5.523-4.477-10-10-10h-160c-5.523 0-10 4.477-10 10v110h-36c-5.523 0-10 4.477-10 10v70h-30c-5.523 0-10 4.477-10 10v70h-30c-5.523 0-10 4.477-10 10v70h-30c-5.523 0-10 4.477-10 10v80c0 5.523 4.477 10 10 10h492c5.523 0 10-4.477 10-10v-80c0-5.523-4.477-10-10-10zm-50 0h-106v-60h106zm-40-80h-66v-60h66zm-40-140v60h-26v-60zm-46-120v20h-30c-5.51 0-10 4.49-10 10s4.49 10 10 10h30v20h-140v-20h30c5.51 0 10-4.49 10-10s-4.49-10-10-10h-30v-20zm-40 180h-60v-20h60zm0 40h-60v-20h60zm0 40h-60v-20h60zm0 40h-60v-20h60zm-60 20h60v20h-60zm60-180h-60v-20h60zm-60 220h60v20h-60zm60-260h-60v-20h60zm-146 20h26v60h-26zm-40 80h66v60h-66zm-40 80h106v60h-106zm-40 80h146v60h-146zm166-280h20v340h-20zm40 320h60v20h-60zm80-320h20v340h-20zm186 340h-146v-60h146z"/><path d="m256 86c5.51 0 10-4.49 10-10s-4.49-10-10-10-10 4.49-10 10 4.49 10 10 10z"/></svg>