<svg id="Capa_1" enable-background="new 0 0 512 512" height="512" viewBox="0 0 512 512" width="512" xmlns="http://www.w3.org/2000/svg"><path d="m159.16 217.59c2.06 0 4.04-.62 5.73-1.81 2.19-1.53 3.65-3.82 4.11-6.45.47-2.63-.12-5.28-1.65-7.47-1.87-2.67-4.94-4.27-8.21-4.27-2.05 0-4.03.63-5.72 1.81-4.52 3.16-5.62 9.41-2.46 13.93 1.87 2.67 4.94 4.26 8.2 4.26z"/><path d="m192.46 325.93c1.38 0 2.73-.28 4-.84 2.45-1.07 4.33-3.03 5.31-5.52.97-2.49.92-5.21-.15-7.65-1.6-3.64-5.2-6-9.17-6-1.38 0-2.73.29-4 .84-5.06 2.21-7.37 8.12-5.16 13.17 1.6 3.65 5.19 6 9.17 6z"/><path d="m203.34 436.1c1.22 0 2.43-.22 3.58-.66 5.15-1.98 7.73-7.78 5.75-12.93-1.48-3.83-5.23-6.41-9.34-6.41-1.22 0-2.43.22-3.58.67-5.15 1.98-7.73 7.78-5.75 12.92 1.48 3.84 5.23 6.41 9.34 6.41z"/><path d="m502 452h-92.127c.887-14.098 1.552-35.188.273-60.504-4.733-93.722-32.927-188.762-92.468-262.583-.887-1.1-1.781-2.194-2.681-3.283-1.899-2.298-4.726-3.629-7.708-3.629h-66.814c-16.017-18.943-35.504-38.833-60.58-56.726-18.618-13.285-38.499-24.223-59.895-32.925v-22.35c0-5.523-4.477-10-10-10h-30c-5.266 0-9.629 4.083-9.978 9.338l-.482 7.26c-9.776-2.229-19.833-4.101-30.207-5.604-2.84-.413-5.713.415-7.899 2.268s-3.473 4.555-3.533 7.42l-.799 38.221c-.103 4.928 3.4 9.196 8.254 10.056 10.539 1.866 20.601 4.237 30.242 7.024l-3.054 46.017h-42.544c-3.079 0-5.987 1.418-7.882 3.846-1.896 2.427-2.566 5.592-1.819 8.58l10 40c1.113 4.451 5.112 7.574 9.701 7.574h28.562l-17.92 270h-30.642c-5.523 0-10 4.477-10 10v40c0 5.523 4.477 10 10 10h492c5.523 0 10-4.477 10-10v-40c0-5.523-4.477-10-10-10zm-154.314 0c-.093-10.41-.589-27.936-2.495-50h45.377c.688 20.931.042 38.233-.734 50zm41.853-70h-46.356c-.734-6.42-1.586-13.102-2.573-20h47.158c.711 6.624 1.303 13.306 1.771 20zm-4.305-40h-47.784c-2.772-16.001-6.282-32.832-10.731-50h48.585c4.103 16.171 7.429 32.921 9.93 50zm-15.489-70h-48.622c-2.044-6.792-4.205-13.459-6.482-20h48.522c2.334 6.554 4.532 13.236 6.582 20zm-14.289-40h-48.296c-7.103-17.71-15.112-34.402-24.012-50h47.21c9.398 15.706 17.807 32.459 25.098 50zm-52.917-90c5.18 6.445 10.168 13.129 14.929 20h-46.634c-4.425-6.69-9.014-13.172-13.801-19.391-.156-.202-.314-.406-.47-.609zm-182.539-87.785c56.623 25.092 92.746 63.653 121.185 100.594 27.972 36.333 49.519 81.492 64.042 134.22 19.399 70.431 22.125 138.154 22.426 162.971h-21.711c.229-24.897-1.278-90.263-20.274-158.664-16.919-60.922-45.487-114.472-82.616-154.862-24.262-26.393-52.036-47.364-83.052-62.793zm0 43.99c13.051 7.126 25.021 15.139 36.025 23.795h-36.025zm0 43.795h58.686c6.548 6.466 12.672 13.154 18.395 20h-77.081zm0 40h62.318c-.76 2.787-.34 5.883 1.411 8.389 3.128 4.477 9.466 5.578 13.93 2.461l15.015-10.514c11.517 16.396 21.018 33.243 28.867 49.664h-105.302c.368-2.454-.146-5.044-1.658-7.209-3.133-4.486-9.462-5.572-13.931-2.451l-.65.455zm0 70h130.415c2.807 6.838 5.332 13.526 7.601 20h-138.016zm0 40h102.986c-3.507 2.746-4.893 7.672-3.046 11.9 1.59 3.64 5.19 6 9.16 6 1.39 0 2.73-.29 4.01-.85l32.229-14.097c.362 1.258.717 2.507 1.058 3.735 4.079 14.687 7.312 29.261 9.883 43.312h-118.473l2.012-.88c5.049-2.21 7.359-8.118 5.151-13.168-2.137-4.886-8.29-7.304-13.171-5.152l-31.799 13.911zm0 70h159.565c1.004 6.878 1.855 13.562 2.574 20h-162.139zm0 40h118.145c-.678.261-1.058.407-1.065.41-5.113 1.966-7.698 7.812-5.751 12.918 1.838 4.819 7.894 7.664 12.93 5.752l40.069-15.417c1.494 20.423 1.681 36.733 1.599 46.338h-122.083l5.746-2.21c5.149-1.98 7.719-7.768 5.741-12.918-1.944-5.061-7.872-7.686-12.922-5.743l-42.409 16.313zm-72.725-351.129.382-18.29c7.081 1.248 13.919 2.678 20.539 4.269l-1.244 18.739c-6.454-1.763-13.004-3.354-19.677-4.718zm42.083-30.871h10.642v432h-39.314zm-51.55 142-5-20h28.409l-1.327 20zm454.192 330h-472v-20h472z"/></svg>