<svg id="Capa_1" enable-background="new 0 0 512 512" height="512" viewBox="0 0 512 512" width="512" xmlns="http://www.w3.org/2000/svg"><path d="m508.378 353.329c-.054-.045-.11-.087-.165-.131-.092-.072-.179-.149-.274-.219-1.598-1.208-38.895-30.384-18.181-99.092.913-3.029.339-6.311-1.547-8.851-1.887-2.539-4.863-4.036-8.026-4.036-1.004 0-1.999.025-2.995.051l-.308.008c-12.893.337-25.765 2.717-38.474 7.038-11.556-17.789-28.219-48.41-28.219-77.097 0-5.523-4.477-10-9.999-10-.285 0-.568.005-.852.011l-.289.005h-.001c-22.048.325-43.849 9.863-65.237 28.448-11.747-9.657-27.492-21.542-46.599-33.496-40.084-25.075-102.942-54.968-174.772-54.968-4.044 0-7.69 2.437-9.238 6.173s-.692 8.038 2.167 10.898c19.027 19.029 33.453 39.746 44.38 60.512-28.703-11.654-63.182-21.049-99.752-21.049-4.044 0-7.69 2.437-9.238 6.173s-.692 8.038 2.167 10.898c22.469 22.47 37.244 46.216 46.973 67.864-22.539-7.356-50.199-13.469-79.899-13.469-4.044 0-7.69 2.437-9.238 6.173s-.692 8.038 2.167 10.898c25.854 25.855 36.478 49.938 40.838 65.588 2.206 7.917 3.076 14.538 3.379 19.34h-37.146c-5.523.001-10 4.478-10 10.001v60c0 5.523 4.477 10 9.999 10h491.968c5.523 0 9.999-4.477 9.999-10v-39.184c.264-3.213-1.042-6.391-3.588-8.487zm-70.993-51.2c4.668-14.47 16.207-25.419 28.309-33.331-5.497 32.029.68 55.453 7.617 70.309 2.094 4.483 4.366 8.443 6.638 11.894h-35.662c-9.134-18.33-11.458-34.75-6.902-48.872zm-15.041 48.871h-74.634c13.852-21.111 43.278-59.628 83.88-78.685-6.076 7.341-10.527 15.27-13.238 23.673-5.413 16.782-4.064 35.232 3.992 55.012zm-2.708-95.038c-15.268 7.619-30.183 18.086-44.48 31.282-2.712-37.143 8.696-68.544 18.766-88.373 5.656 22.234 16.688 42.79 25.714 57.091zm-40.951-70.982c-13.24 24.506-30.446 68.507-21.427 120.573-16.797 18.94-28.075 36.818-33.126 45.447h-68.162c6.813-17.168 20.252-48.55 38.635-79.654 20.182-34.147 49.879-73.867 84.08-86.366zm-102.539-12.341c17.436 10.877 32.066 21.818 43.186 30.86-5.083 5.44-10.141 11.39-15.17 17.866-.977-.954-2.002-1.928-3.121-2.945-11.869-10.69-29.878-22.98-55.067-37.56-1.52-.88-3.24-1.34-4.989-1.34-3.57 0-6.89 1.91-8.669 5-1.33 2.31-1.69 5-1 7.58s2.349 4.74 4.659 6.08c14.589 8.42 26.988 16.28 36.857 23.36 5.89 4.22 10.869 8.16 14.789 11.71 1.714 1.538 3.265 3.062 4.614 4.507-5.032 7.369-10.034 15.256-15.002 23.675-22.23 37.669-37.131 74.734-42.733 89.567h-14.373l-16.556-16.558c.488-15.729.047-37.067-3.375-61.479-5.859-41.792-21.857-99.877-64.088-150.812 57.058 5.511 106.798 29.752 140.038 50.489zm-113.811 33.534c9.794 24.979 15.127 48.949 17.966 68.93 3.103 21.829 3.645 41.221 3.316 55.897h-54.305c.063-10.576-.79-27.997-5.43-49.192-5.975-27.293-19.497-65.644-50.056-102.867 32.629 3.798 63.055 14.811 88.509 27.232zm-128.759 44.211c25.173 2.895 48.041 9.899 65.738 16.815 2.029 6.454 3.619 12.53 4.859 18.096 4.425 19.87 5.181 36.223 5.126 45.705h-42.112c-.775-15.809-6.321-46.223-33.611-80.616zm458.392 140.616h-471.969v-40h171.847l17.07 17.071c1.875 1.875 4.419 2.929 7.071 2.929h275.982v20z"/><path d="m205.717 180.37c3.8 0 7.219-2.1 8.929-5.48 2.49-4.92.51-10.95-4.409-13.44-1.41-.72-2.93-1.08-4.5-1.08-3.8 0-7.22 2.1-8.93 5.49-2.49 4.92-.52 10.94 4.4 13.44 1.42.71 2.94 1.07 4.51 1.07z"/></svg>