<svg id="Capa_1" enable-background="new 0 0 512 512" height="512" viewBox="0 0 512 512" width="512" xmlns="http://www.w3.org/2000/svg"><circle cx="216" cy="462" r="10"/><circle cx="296" cy="462" r="10"/><circle cx="256" cy="462" r="10"/><path d="m507.257 383.494c-2.948-1.822-6.63-1.988-9.729-.438l-15.528 7.764-15.528-7.764c-3.1-1.55-6.781-1.384-9.729.438-2.949 1.821-4.743 5.04-4.743 8.506v40h-20v-40c0-3.466-1.794-6.685-4.743-8.506-2.948-1.822-6.63-1.988-9.729-.438l-15.528 7.764-15.528-7.764c-3.1-1.55-6.781-1.384-9.729.438-2.949 1.821-4.743 5.04-4.743 8.506v40h-20v-60c0-3.239-1.569-6.277-4.209-8.153-2.64-1.875-6.027-2.357-9.084-1.289l-12.707 4.432v-106.99c0-1.072-.174-2.141-.517-3.157-.01-.028-.014-.058-.024-.086l-52.064-151.853 7.669 3.974c1.449.751 3.028 1.122 4.6 1.122 2.087 0 4.164-.653 5.912-1.934 3.065-2.247 4.592-6.036 3.941-9.78l-4.754-27.322 20.165-19.375c2.756-2.649 3.762-6.638 2.59-10.276-1.172-3.639-4.316-6.292-8.101-6.833l-27.986-4.009-12.49-24.946c-1.694-3.387-5.155-5.525-8.941-5.525s-7.247 2.138-8.942 5.523l-12.49 24.946-27.986 4.009c-3.784.542-6.929 3.194-8.101 6.833s-.167 7.627 2.59 10.276l20.165 19.375-4.754 27.322c-.651 3.744.875 7.534 3.941 9.78 3.064 2.246 7.139 2.561 10.512.813l7.669-3.974-52.064 151.853c-.01.028-.014.058-.024.086-.339 1.014-.516 2.088-.516 3.158v106.99l-12.707-4.432c-3.059-1.068-6.444-.587-9.084 1.289s-4.209 4.914-4.209 8.153v60h-20v-40c0-3.466-1.794-6.685-4.743-8.506-2.948-1.822-6.629-1.988-9.729-.438l-15.528 7.764-15.528-7.764c-3.101-1.55-6.781-1.384-9.729.438-2.949 1.821-4.743 5.04-4.743 8.506v40h-20v-40c0-3.466-1.794-6.685-4.743-8.506-2.948-1.822-6.63-1.988-9.729-.438l-15.528 7.764-15.528-7.764c-3.101-1.55-6.781-1.384-9.729.438-2.949 1.821-4.743 5.04-4.743 8.506v110c0 5.523 4.477 10 10 10h492c5.523 0 10-4.477 10-10v-110c0-3.466-1.794-6.685-4.743-8.506zm-35.257 24.686 5.528 2.764c2.815 1.407 6.129 1.407 8.944 0l5.528-2.764v23.82h-20zm-80 0 5.528 2.764c2.815 1.407 6.129 1.407 8.944 0l5.528-2.764v23.82h-20zm-86-138.18v98.851l-18.039-6.293c-2.133-.744-4.455-.744-6.587 0l-25.374 8.851-25.373-8.851c-2.133-.744-4.455-.744-6.588 0l-18.039 6.293v-98.851zm-76.29-218.631 12.875-1.844c3.245-.465 6.056-2.491 7.524-5.422l5.891-11.767 5.891 11.767c1.468 2.931 4.279 4.957 7.524 5.422l12.875 1.844-9.219 8.857c-2.397 2.304-3.493 5.649-2.923 8.925l2.208 12.687-11.754-6.091c-1.442-.748-3.022-1.122-4.601-1.122s-3.159.374-4.601 1.122l-11.754 6.091 2.208-12.687c.57-3.276-.526-6.621-2.923-8.925zm26.29 64.464 46 134.167h-36v-32c0-5.523-4.477-10-10-10s-10 4.477-10 10v32h-36zm-156 292.347 5.528 2.764c2.815 1.407 6.129 1.407 8.944 0l5.528-2.764v23.82h-20zm-80 0 5.528 2.764c2.815 1.407 6.129 1.407 8.944 0l5.528-2.764v23.82h-20zm0 43.82h140v40h-140zm160-20h36c5.51 0 10-4.49 10-10s-4.49-10-10-10h-36v-25.921l15.374 5.363c2.133.744 4.455.744 6.587 0l25.373-8.851 25.373 8.851c2.133.744 4.456.744 6.587 0l25.374-8.851 25.372 8.851c2.133.744 4.455.744 6.587 0l15.373-5.363v25.921h-36c-5.51 0-10 4.49-10 10s4.49 10 10 10h36v60h-152zm312 60h-140v-40h140z"/><path d="m256 412c-5.51 0-10 4.49-10 10s4.49 10 10 10 10-4.49 10-10-4.49-10-10-10z"/><path d="m256 350c16.542 0 30-13.458 30-30s-13.458-30-30-30-30 13.458-30 30 13.458 30 30 30zm0-40c5.514 0 10 4.486 10 10s-4.486 10-10 10-10-4.486-10-10 4.486-10 10-10z"/></svg>