<svg id="Capa_1" enable-background="new 0 0 512 512" height="512" viewBox="0 0 512 512" width="512" xmlns="http://www.w3.org/2000/svg"><path d="m60 306c5.51 0 10-4.49 10-10s-4.49-10-10-10-10 4.49-10 10 4.49 10 10 10z"/><path d="m60 386c5.51 0 10-4.49 10-10v-40c0-5.51-4.49-10-10-10s-10 4.49-10 10v40c0 5.51 4.49 10 10 10z"/><path d="m100 386c5.51 0 10-4.49 10-10v-40c0-5.51-4.49-10-10-10s-10 4.49-10 10v40c0 5.51 4.49 10 10 10z"/><path d="m100 306c5.51 0 10-4.49 10-10s-4.49-10-10-10-10 4.49-10 10 4.49 10 10 10z"/><path d="m502 246h-121v-4c0-5.523-4.478-10-10-10h-5v-69.998c0-5.523-4.478-10-10-10h-10.354c-1.816-22.387-10.931-48.129-24.727-69.071-15.651-23.76-34.853-38.348-54.919-42.009v-30.922c0-5.523-4.478-10-10-10-5.523 0-10 4.477-10 10v30.922c-20.066 3.661-39.268 18.249-54.919 42.009-13.796 20.943-22.91 46.684-24.726 69.071h-10.355c-5.523 0-10 4.477-10 10v69.998h-5c-5.523 0-10 4.477-10 10v4h-121c-5.523 0-10 4.477-10 10v206c0 5.523 4.477 10 10 10h106v30c0 5.523 4.477 10 10 10h260c5.522 0 10-4.477 10-10v-30h106c5.522 0 10-4.477 10-10v-206c0-5.523-4.478-10-10-10zm-246.026-185.999c.009 0 .017.001.026.001 0 0 .017-.001.026-.001 35.42.027 65.674 53.513 69.554 92.001h-139.16c3.879-38.489 34.133-91.975 69.554-92.001zm-89.974 112.001h180v59.998h-180zm-15 79.998h210v20h-210zm195 40v120h-20v-120zm-40 0v120h-20v-120zm-40 0v120h-20v-120zm-40 0v120h-20v-120zm-40 0v120h-20v-120zm-35 140h210v20h-210zm-131-166h111v16c0 5.523 4.477 10 10 10h5v120h-1.973l-13.838-9.226c-11.857-7.905-27.777-6.329-37.854 3.748l-1.369 1.37c-11.353-10.133-28.625-10.124-39.965.03-5.507-4.938-12.546-7.638-20-7.638-3.827 0-7.543.717-11 2.078v-136.362zm111 186h-111v-25.39c3.313-2.83 6.29-6.325 10.998-6.325 5.544-.001 9.359 5.216 12.93 8.787 3.904 3.904 10.233 3.905 14.139.004 3.672-3.668 8.446-8.851 14.162-8.405 4.949.386 8.445 5.148 11.698 8.401 3.905 3.905 10.237 3.905 14.143 0 5.349-5.349 12.426-15.389 21.024-9.656l11.906 7.936zm245 40h-240v-20h240zm116-40h-111v-24.648s11.882-7.921 11.904-7.936c8.309-5.539 15.751 4.382 21.024 9.656 3.906 3.905 10.236 3.905 14.143 0 3.691-3.691 7.149-8.786 12.927-8.787 5.603-.001 9.324 5.18 12.931 8.787 3.859 3.859 10.288 3.855 14.142 0 3.678-3.678 7.178-8.786 12.927-8.786 4.411-.001 7.766 3.562 11.002 6.325zm0-49.638c-3.457-1.361-7.173-2.078-11-2.078-7.454 0-14.493 2.7-20 7.638-5.508-4.938-12.547-7.638-20.001-7.638-7.438 0-14.463 2.689-19.965 7.607l-1.369-1.369c-10.077-10.077-25.997-11.654-37.854-3.748l-13.838 9.226h-1.973v-120h5c5.522 0 10-4.477 10-10v-16h111z"/><path d="m236 192c-5.52 0-10 4.48-10 10 0 5.53 4.48 10 10 10s10-4.47 10-10c0-5.52-4.48-10-10-10z"/><path d="m196 192c-5.52 0-10 4.48-10 10 0 5.53 4.48 10 10 10s10-4.47 10-10c0-5.52-4.48-10-10-10z"/><path d="m316 192c-5.521 0-10 4.48-10 10 0 5.53 4.479 10 10 10 5.52 0 10-4.47 10-10 0-5.52-4.48-10-10-10z"/><path d="m276 192c-5.521 0-10 4.48-10 10 0 5.53 4.479 10 10 10 5.52 0 10-4.47 10-10 0-5.52-4.48-10-10-10z"/><path d="m452 386c5.51 0 10-4.49 10-10v-40c0-5.51-4.49-10-10-10s-10 4.49-10 10v40c0 5.51 4.49 10 10 10z"/><path d="m452 306c5.51 0 10-4.49 10-10s-4.49-10-10-10-10 4.49-10 10 4.49 10 10 10z"/><path d="m412 306c5.51 0 10-4.49 10-10s-4.49-10-10-10-10 4.49-10 10 4.49 10 10 10z"/><path d="m412 386c5.51 0 10-4.49 10-10v-40c0-5.51-4.49-10-10-10s-10 4.49-10 10v40c0 5.51 4.49 10 10 10z"/></svg>