<svg fill="currentColor" fill-rule="evenodd" id="Capa_1" enable-background="new 0 0 512 512" height="512" viewBox="0 0 512 512" width="512" xmlns="http://www.w3.org/2000/svg"><path d="m216.87 23.83c.64 0 1.3-.07 1.95-.2 5.42-1.07 8.94-6.33 7.87-11.75-1.08-5.42-6.34-8.94-11.76-7.86-5.42 1.07-8.94 6.33-7.86 11.75.94 4.76 5.12 8.06 9.8 8.06z"/><path d="m114.54 78.62c2.56 0 5.12-.98 7.07-2.93 3.91-3.91 3.91-10.24 0-14.14-3.91-3.91-10.24-3.91-14.14 0-3.91 3.91-3.91 10.24 0 14.14 1.95 1.95 4.51 2.93 7.07 2.93z"/><path d="m179.37 35.21c1.28 0 2.58-.25 3.83-.77 5.11-2.11 7.52-7.97 5.41-13.07-2.12-5.1-7.97-7.52-13.07-5.4-5.11 2.12-7.52 7.97-5.41 13.07 1.6 3.85 5.32 6.17 9.24 6.17z"/><path d="m71.34 296.95c1.29 0 2.59-.25 3.85-.77 5.1-2.13 7.5-7.98 5.38-13.08-2.13-5.1-7.99-7.5-13.08-5.38-5.1 2.13-7.51 7.99-5.38 13.08 1.6 3.84 5.32 6.15 9.23 6.15z"/><path d="m144.83 53.73c1.91 0 3.85-.55 5.56-1.7 4.59-3.07 5.81-9.28 2.74-13.87-3.08-4.59-9.29-5.82-13.87-2.74-4.59 3.07-5.82 9.28-2.75 13.87 1.93 2.88 5.1 4.44 8.32 4.44z"/><path d="m84.1 107.23c1.71 1.14 3.64 1.69 5.55 1.69 3.23 0 6.39-1.56 8.32-4.44 3.07-4.59 1.84-10.8-2.75-13.88-4.59-3.07-10.8-1.83-13.87 2.76 0-.01 0-.01 0-.01-3.07 4.59-1.84 10.81 2.75 13.88z"/><path d="m422.22 108.73c1.92 0 3.85-.55 5.56-1.7 4.59-3.08 5.81-9.29 2.74-13.88-3.08-4.58-9.29-5.81-13.88-2.73s-5.81 9.29-2.73 13.88c1.93 2.87 5.09 4.43 8.31 4.43z"/><path d="m431.52 137.1c1.59 3.85 5.32 6.17 9.24 6.17 1.28 0 2.58-.25 3.83-.77 5.1-2.12 7.51-7.98 5.39-13.08s-7.97-7.51-13.07-5.39-7.51 7.97-5.39 13.07z"/><path d="m414.15 315.34c-3.07 4.59-1.83 10.8 2.77 13.87 1.7 1.14 3.63 1.68 5.54 1.68 3.23 0 6.4-1.56 8.33-4.45 3.06-4.59 1.82-10.8-2.77-13.87-4.59-3.06-10.8-1.82-13.87 2.77z"/><path d="m442.34 172.71c.95 4.76 5.13 8.05 9.8 8.06.65 0 1.3-.07 1.96-.2 5.42-1.08 8.94-6.34 7.86-11.76-1.08-5.41-6.34-8.93-11.76-7.86-5.42 1.08-8.93 6.35-7.86 11.76z"/><path d="m361.43 51.91c1.71 1.14 3.64 1.69 5.55 1.69 3.23 0 6.39-1.56 8.32-4.45 3.07-4.59 1.84-10.8-2.76-13.87-4.59-3.07-10.8-1.83-13.87 2.76-3.06 4.59-1.83 10.8 2.76 13.87z"/><path d="m390.23 75.54c1.96 1.94 4.51 2.92 7.07 2.92s5.12-.98 7.08-2.94c3.9-3.91 3.89-10.24-.02-14.14-3.9-3.9-10.24-3.9-14.14.01s-3.89 10.24.01 14.14z"/><path d="m328.59 34.36c1.25.51 2.55.76 3.82.76 3.93 0 7.65-2.33 9.25-6.18 2.11-5.1-.32-10.95-5.42-13.06s-10.95.31-13.06 5.41c-2.12 5.11.31 10.96 5.41 13.07z"/><path d="m292.96 23.59c.65.13 1.3.19 1.95.19 4.68 0 8.86-3.3 9.8-8.07 1.06-5.42-2.46-10.67-7.88-11.74s-10.68 2.46-11.75 7.88c-1.06 5.41 2.46 10.67 7.88 11.74z"/><path d="m255.89 20c5.52 0 10-4.48 9.99-10.01 0-5.52-4.48-9.99-10-9.99s-10 4.48-10 10.01c.01 5.52 4.49 9.99 10.01 9.99z"/><path d="m446 209.78c0 5.52 4.49 9.99 10.01 9.99 5.52-.01 10-4.49 9.99-10.01-.01-5.53-4.49-10-10.01-9.99-5.53 0-10 4.49-9.99 10.01z"/><path d="m390.54 344.16c-3.9 3.91-3.89 10.24.02 14.14 1.96 1.94 4.51 2.92 7.06 2.92 2.57 0 5.13-.98 7.09-2.94 3.89-3.91 3.89-10.24-.02-14.14-3.92-3.9-10.25-3.89-14.15.02z"/><path d="m69.7 247.5c-1.09-5.41-6.35-8.93-11.77-7.84-5.41 1.08-8.93 6.35-7.84 11.77.95 4.75 5.12 8.04 9.79 8.04.65 0 1.31-.07 1.98-.2 5.41-1.08 8.92-6.35 7.84-11.77z"/><path d="m145.19 386.53c3.24 0 6.41-1.56 8.34-4.45 3.06-4.6 1.82-10.81-2.78-13.87s-10.8-1.82-13.87 2.77c-3.06 4.6-1.82 10.81 2.78 13.87 1.7 1.14 3.63 1.68 5.53 1.68z"/><path d="m179.79 404.97c3.93 0 7.66-2.33 9.25-6.19 2.11-5.1-.32-10.95-5.43-13.05-5.11-2.11-10.95.32-13.06 5.43-2.1 5.1.33 10.95 5.43 13.06 1.25.51 2.54.75 3.81.75z"/><path d="m462.05 250.71c1.07-5.42-2.46-10.68-7.88-11.74-5.42-1.07-10.67 2.46-11.74 7.88-1.06 5.42 2.47 10.68 7.88 11.74.66.13 1.3.19 1.94.19 4.69 0 8.87-3.3 9.8-8.07z"/><path d="m444.74 277.07c-5.1-2.11-10.95.32-13.06 5.42-2.1 5.1.32 10.95 5.43 13.06 1.25.52 2.54.76 3.81.76 3.93 0 7.66-2.33 9.25-6.18 2.11-5.11-.32-10.96-5.43-13.06z"/><path d="m329 385.47c-5.1 2.13-7.51 7.98-5.39 13.08 1.6 3.84 5.32 6.16 9.24 6.16 1.28 0 2.58-.25 3.84-.77 5.1-2.13 7.51-7.98 5.39-13.08-2.13-5.1-7.98-7.51-13.08-5.39z"/><path d="m361.8 367.85c-4.59 3.08-5.81 9.29-2.73 13.87 1.93 2.88 5.09 4.43 8.31 4.43 1.92 0 3.85-.55 5.56-1.7h.01c4.58-3.08 5.8-9.29 2.72-13.88-3.08-4.58-9.29-5.8-13.87-2.72z"/><path d="m57.86 180.8c.66.13 1.31.19 1.95.19 4.68 0 8.86-3.3 9.8-8.06 1.07-5.42-2.45-10.68-7.87-11.75s-10.68 2.45-11.75 7.87 2.45 10.68 7.87 11.75z"/><path d="m67.33 142.72c1.25.51 2.55.76 3.83.76 3.92 0 7.64-2.32 9.24-6.17 2.11-5.11-.31-10.96-5.41-13.07s-10.95.31-13.07 5.41c-2.11 5.1.31 10.95 5.41 13.07z"/><path d="m89.93 331.47c1.92 0 3.86-.55 5.57-1.71 4.58-3.08 5.8-9.29 2.71-13.87-3.08-4.59-9.29-5.8-13.87-2.72-4.59 3.08-5.8 9.29-2.72 13.88 1.93 2.87 5.09 4.42 8.31 4.42z"/><path d="m256.35 420h.01c5.53-.01 10-4.49 9.99-10.02-.01-5.52-4.5-9.99-10.02-9.98s-9.99 4.49-9.98 10.02c.01 5.52 4.48 9.98 10 9.98z"/><path d="m121.95 358.76c3.9-3.91 3.88-10.24-.03-14.14s-10.24-3.88-14.14.03-3.88 10.24.03 14.14c1.95 1.94 4.5 2.92 7.05 2.92 2.57 0 5.13-.99 7.09-2.95z"/><path d="m56 220.46h.02c5.53-.01 9.99-4.5 9.98-10.02 0-.07 0-.14 0-.21 0-.08 0-.15 0-.23 0-5.52-4.48-10-10-10s-10 4.48-10 10v.23s0 .17 0 .26c.01 5.51 4.49 9.97 10 9.97z"/><path d="m466 492c-5.51 0-10 4.49-10 10s4.49 10 10 10 10-4.49 10-10-4.49-10-10-10z"/><path d="m426 492h-10v-30c0-5.523-4.477-10-10-10h-38.352c21.555-8.259 41.528-18.96 59.256-31.929 4.458-3.261 5.427-9.518 2.167-13.975s-9.518-5.428-13.975-2.167c-31.362 22.944-69.758 37.68-110.155 44.219l-5.803-73.7c72.915-19.141 126.862-85.61 126.862-164.448 0-93.738-76.262-170-170-170s-170 76.262-170 170c0 78.838 53.947 145.307 126.863 164.448l-5.803 73.7c-40.398-6.539-78.793-21.275-110.155-44.219-4.457-3.26-10.714-2.291-13.975 2.167-3.261 4.457-2.291 10.714 2.167 13.975 17.728 12.969 37.701 23.67 59.256 31.929h-38.353c-5.523 0-10 4.477-10 10v30h-50c-5.51 0-10 4.49-10 10s4.49 10 10 10h380c5.51 0 10-4.49 10-10s-4.49-10-10-10zm-320-282c0-82.71 67.29-150 150-150s150 67.29 150 150c0 68.304-45.893 126.086-108.462 144.145l-1.609-20.427c52.207-16.89 90.071-65.961 90.071-123.718 0-71.682-58.318-130-130-130s-130 58.318-130 130c0 57.757 37.864 106.828 90.07 123.718l-1.608 20.427c-62.569-18.059-108.462-75.841-108.462-144.145zm150 130c6.883 0 13.641-.542 20.238-1.578l1.574 19.987c-7.123 1.042-14.404 1.591-21.812 1.591s-14.689-.549-21.812-1.591l1.574-19.987c6.597 1.036 13.355 1.578 20.238 1.578zm-18.662-21.591 7.062-89.686c.473-6.013 5.568-10.723 11.6-10.723s11.127 4.71 11.601 10.724l7.062 89.686c-6.069 1.04-12.302 1.59-18.663 1.59s-12.594-.55-18.662-1.591zm18.662 61.591c7.933 0 15.738-.559 23.385-1.616l5.693 72.298c-7.664.725-15.369 1.168-23.083 1.317h-11.989c-7.714-.149-15.419-.593-23.083-1.317l5.693-72.298c7.646 1.057 15.451 1.616 23.384 1.616zm0-182c-16.398 0-30.252 12.806-31.539 29.153l-6.769 85.961c-41.823-15.587-71.692-55.926-71.692-103.114 0-60.654 49.346-110 110-110s110 49.346 110 110c0 47.188-29.869 87.527-71.692 103.115l-6.769-85.961c-1.287-16.348-15.141-29.154-31.539-29.154zm140 294h-280v-20h280z"/></svg>