<svg id="Capa_1" enable-background="new 0 0 512 512" height="512" viewBox="0 0 512 512" width="512" xmlns="http://www.w3.org/2000/svg"><circle cx="256" cy="332" r="10"/><circle cx="256" cy="292" r="10"/><circle cx="256" cy="372" r="10"/><path d="m256 93c-5.523 0-10 4.478-10 10v22c0 5.522 4.477 10 10 10s10-4.478 10-10v-22c0-5.522-4.477-10-10-10z"/><path d="m216 110c-5.523 0-10 4.478-10 10v12c0 5.522 4.477 10 10 10s10-4.478 10-10v-12c0-5.522-4.477-10-10-10z"/><path d="m296 110c-5.523 0-10 4.478-10 10v12c0 5.522 4.477 10 10 10s10-4.478 10-10v-12c0-5.522-4.477-10-10-10z"/><path d="m257 262c16.542 0 30-13.458 30-30s-13.458-30-30-30-30 13.458-30 30 13.458 30 30 30zm0-40c5.514 0 10 4.486 10 10s-4.486 10-10 10-10-4.486-10-10 4.486-10 10-10z"/><path d="m502.361 374.407c-65.272-2.359-115.96-53.458-139.174-111.099-11.584-28.764-17.187-59.832-17.187-90.808v-50.58c0-22.335-15.046-42.142-36.589-48.166-34.338-9.601-43.411-19.736-43.411-23.754v-10h10c5.523 0 10-4.478 10-10s-4.477-10-10-10h-10v-10c0-5.522-4.477-10-10-10s-10 4.478-10 10v10h-10c-5.523 0-10 4.478-10 10s4.477 10 10 10h10v10c0 4.018-9.073 14.153-43.411 23.754-21.543 6.024-36.589 25.831-36.589 48.166v50.58c0 67.139-27.354 139.427-84.95 177.738-21.38 14.222-45.618 23.236-71.411 24.169-5.379.195-9.639 4.612-9.639 9.993v117.6c0 5.522 4.477 10 10 10h492c5.523 0 10-4.478 10-10v-117.6c0-5.381-4.26-9.798-9.639-9.993zm-462.361 117.593h-20v-98.269c6.72-.681 13.399-1.817 20-3.402zm40 0h-20v-107.951c6.819-2.66 13.499-5.813 20-9.439zm40 0h-20v-130.47c6.986-5.287 13.667-11.15 20-17.548zm46 0h-26v-171.581c10.326-14.167 19.034-29.744 26-46.342zm100-40h-20v-20c0-5.514 4.486-10 10-10s10 4.486 10 10zm-20 40v-20h20v20zm80 0h-40v-60c0-16.542-13.458-30-30-30s-30 13.458-30 30v60h-40v-310h140zm0-330h-140v-40.08c0-13.4 9.036-25.287 21.975-28.904 22.747-6.36 38.684-13.791 48.025-22.45 9.341 8.659 25.278 16.09 48.025 22.45 12.939 3.617 21.975 15.504 21.975 28.904zm46 330h-26v-217.922c6.966 16.598 15.674 32.174 26 46.341zm40 0h-20v-148.018c6.333 6.397 13.013 12.26 20 17.548zm40 0h-20v-117.391c6.501 3.626 13.182 6.779 20 9.439zm40 0h-20v-101.671c6.601 1.585 13.28 2.722 20 3.402z"/></svg>