<svg fill="currentColor" fill-rule="evenodd" id="Capa_1" enable-background="new 0 0 512 512" height="512" viewBox="0 0 512 512" width="512" xmlns="http://www.w3.org/2000/svg"><path d="m509.071 195.429-60-60c-3.627-3.627-9.409-3.922-13.386-.683l-63.502 51.709-109.654-94.529c-3.752-3.234-9.307-3.234-13.059 0l-109.654 94.529-63.502-51.709c-3.978-3.239-9.759-2.943-13.386.683l-60 60c-1.874 1.876-2.928 4.419-2.928 7.071v210c0 5.522 4.477 10 10 10h492c5.523 0 10-4.478 10-10v-210c0-2.652-1.054-5.195-2.929-7.071zm-117.071 167.071v-20h20v20zm100-40h-20v-20h20zm-40-40v-25.857l25.858 25.857zm0 20v20h-20v-20zm-60 0h20v20h-20zm40-20h-25.858l25.858-25.857zm0 80v-20h20v20zm40-20h20v20h-20zm-401.313-186.545 62.999 51.299c3.76 3.063 9.172 2.986 12.844-.18l109.47-94.371 109.471 94.371c3.671 3.164 9.084 3.241 12.844.18l62.999-51.299 50.686 50.688v61.715l-42.929-42.929c-.014-.014-.031-.025-.046-.039-1.909-1.877-4.567-2.927-7.245-2.869-2.521.055-5.011 1.095-6.806 2.869-.015.014-.031.025-.046.039 0 0-60 60-60.009 60.011-1.841 1.847-2.919 4.451-2.919 7.061v110h-20s0-89.999 0-90c0-2.137-.717-4.29-2-6l-30-40c-.174-.232-.367-.446-.558-.66-.047-.052-.083-.112-.131-.163l-56-60c-1.868-1.995-4.578-3.173-7.311-3.173-2.731 0-5.446 1.175-7.31 3.173l-56 60c-.048.052-.084.111-.131.163-.192.214-.384.428-.558.66l-30 40c-1.281 1.709-2 3.866-2 6v90h-20s0-109.921 0-110c0-2.611-1.082-5.225-2.929-7.071l-60-60c-.014-.014-.031-.025-.046-.039-1.837-1.837-4.459-2.877-7.05-2.871-2.585.006-5.161 1.053-7.001 2.871-.015.014-.031.025-.046.04l-42.929 42.926v-61.715zm213.593 206.545c-4.128-11.639-15.243-20-28.28-20s-24.152 8.361-28.28 20h-1.72v-40h60v40zm-104.28 0v-40h26v40zm106-60v-20h21l15 20zm-20-40v-24.63l22.988 24.63zm0 20v20h-20v-20zm-20-20h-22.988l22.988-24.63zm-41 20h21v20h-36zm101 40h26v40h-26zm-206-20h20v20h-20zm-20-20v-25.857l25.858 25.857zm0 20v20h-20v-20zm-60 0h20v20h-20zm40-20h-25.858l25.858-25.857zm-40 60h40v20h-40zm60 40v20h-20v-20zm0-20v-20h40v20zm-60 40v-20h20v20zm80 0v-20h20v20zm80-20h46v20h-46zm66-10c0-5.514 4.486-10 10-10s10 4.486 10 10v30h-20zm40 30v-20h46v20zm106-20h40v20h-40zm100 20h-40v-20h40z"/><path d="m163.81 244.78c2.36 0 4.66-.851 6.47-2.381 4.2-3.569 4.71-9.89 1.15-14.09-1.91-2.25-4.69-3.529-7.63-3.529-2.36 0-4.66.84-6.47 2.38-2.04 1.729-3.28 4.14-3.49 6.81-.22 2.66.61 5.25 2.34 7.28 1.9 2.24 4.68 3.53 7.63 3.53z"/><path d="m302.17 208.819 53.36 45.301c1.8 1.54 4.1 2.38 6.46 2.38 2.95 0 5.73-1.29 7.63-3.53 1.73-2.03 2.56-4.62 2.35-7.28-.22-2.67-1.46-5.08-3.5-6.81l-53.36-45.311c-1.8-1.529-4.1-2.38-6.47-2.38-2.94 0-5.72 1.29-7.62 3.53-3.57 4.211-3.06 10.531 1.15 14.1z"/><path d="m194.3 218.89c2.37 0 4.66-.84 6.47-2.38l53.36-45.3c2.03-1.73 3.28-4.15 3.49-6.811.22-2.67-.61-5.25-2.34-7.29-1.91-2.239-4.69-3.529-7.63-3.529-2.36 0-4.66.85-6.47 2.38l-53.36 45.31c-2.03 1.73-3.28 4.141-3.49 6.811-.22 2.66.61 5.25 2.34 7.279 1.91 2.24 4.69 3.53 7.63 3.53z"/><path d="m271.68 182.93c1.8 1.53 4.1 2.37 6.46 2.37h.01c2.94 0 5.72-1.28 7.62-3.53 3.57-4.2 3.05-10.52-1.15-14.09-1.81-1.53-4.1-2.38-6.47-2.38-2.94 0-5.72 1.29-7.63 3.53-1.72 2.04-2.56 4.62-2.34 7.29.22 2.66 1.46 5.08 3.5 6.81z"/></svg>