<svg fill="currentColor" fill-rule="evenodd" id="Capa_1" enable-background="new 0 0 512 512" height="512" viewBox="0 0 512 512" width="512" xmlns="http://www.w3.org/2000/svg"><path d="m327.456 492.105c-1.854-1.87-8.79-11.561-16.903-56.502-5.225-28.943-10.103-67.659-14.498-115.072-6.058-65.339-9.518-109.48-10.649-132.261 18.243-10.304 30.594-29.866 30.594-52.27 0-29.676-21.661-54.374-50-59.151v-66.849c0-5.522-4.478-10-10-10-5.523 0-10 4.478-10 10v66.849c-28.339 4.777-50 29.475-50 59.151 0 21.602 11.479 40.568 28.653 51.135-1.059 21.645-4.487 66.644-10.446 132.973-4.252 47.333-8.938 86.033-13.926 115.024-1.541 8.955-3.036 16.506-4.458 22.907-.471 1.086-.745 2.272-.8 3.514-5.285 22.618-9.432 28.99-10.858 30.614-4.647.863-8.165 4.937-8.165 9.833 0 5.522 4.477 10 10 10h140c5.522 0 10-4.478 10-10 0-5.028-3.712-9.189-8.544-9.895zm-71.456-396.105c18.604 0 34.283 12.767 38.734 30h-77.469c4.452-17.233 20.131-30 38.735-30zm38.734 50c-4.451 17.233-20.13 30-38.734 30s-34.283-12.767-38.734-30zm-87.976 346c2.217-5.425 4.306-12.056 6.328-20h1.914c5.51 0 10-4.49 10-10 0-4.662-3.219-8.582-7.546-9.682.121-.618.243-1.228.365-1.857 5.536-28.683 10.713-68.558 15.388-118.519 6.009-64.217 9.655-109.062 11.086-137.097 3.788.752 7.701 1.155 11.707 1.155 3.314 0 6.562-.282 9.731-.801 1.457 28.246 5.145 72.819 11.314 136.762 4.823 49.981 10.205 89.878 15.995 118.579.11.543.22 1.07.329 1.605-4.744.782-8.37 4.901-8.37 9.855 0 5.51 4.479 10 10 10h2.986c2.016 7.547 4.084 13.885 6.241 19.116.11.268.232.563.366.884z"/><path d="m255 452c-5.51 0-10 4.49-10 10s4.49 10 10 10 10-4.49 10-10-4.49-10-10-10z"/></svg>