<svg fill="currentColor" fill-rule="evenodd" id="Capa_1" enable-background="new 0 0 512 512" height="512" viewBox="0 0 512 512" width="512" xmlns="http://www.w3.org/2000/svg"><path d="m420 100c5.51 0 10-4.49 10-10s-4.49-10-10-10-10 4.49-10 10 4.49 10 10 10z"/><path d="m300 90c0 5.51 4.49 10 10 10h70c5.51 0 10-4.49 10-10s-4.49-10-10-10h-70c-5.51 0-10 4.49-10 10z"/><path d="m70 120h80c5.51 0 10-4.49 10-10s-4.49-10-10-10h-80c-5.51 0-10 4.49-10 10s4.49 10 10 10z"/><path d="m190 120c5.51 0 10-4.49 10-10s-4.49-10-10-10c-5.521 0-10 4.49-10 10s4.479 10 10 10z"/><path d="m100 150c0 5.51 4.49 10 10 10h80c5.51 0 10-4.49 10-10s-4.49-10-10-10h-80c-5.51 0-10 4.49-10 10z"/><path d="m70 160c5.51 0 10-4.49 10-10s-4.49-10-10-10-10 4.49-10 10 4.49 10 10 10z"/><path d="m70 392h60c5.522 0 10-4.478 10-10s-4.478-10-10-10h-60c-5.522 0-10 4.478-10 10s4.478 10 10 10z"/><path d="m190 412h-80c-5.51 0-10 4.49-10 10s4.49 10 10 10h80c5.51 0 10-4.49 10-10s-4.49-10-10-10z"/><path d="m70 412c-5.51 0-10 4.49-10 10s4.49 10 10 10 10-4.49 10-10-4.49-10-10-10z"/><path d="m412 382c0 5.522 4.478 10 10 10h20c5.522 0 10-4.478 10-10s-4.478-10-10-10h-20c-5.522 0-10 4.478-10 10z"/><path d="m442 412h-60c-5.521 0-10 4.479-10 10 0 5.51 4.479 10 10 10h60c5.51 0 10-4.49 10-10 0-5.521-4.49-10-10-10z"/><path d="m502 60c5.522 0 10-4.478 10-10v-40c0-5.522-4.478-10-10-10h-492c-5.522 0-10 4.478-10 10v40c0 5.522 4.478 10 10 10h10v392h-10c-5.522 0-10 4.478-10 10v40c0 5.522 4.478 10 10 10h492c5.522 0 10-4.478 10-10v-40c0-5.522-4.478-10-10-10h-10v-392zm-10-20h-144v-20h144zm-164 0h-144v-20h144zm-308-20h144v20h-144zm0 452h144v20h-144zm164 0h144v20h-144zm308 20h-144v-20h134 10zm-20-40h-432v-392h432z"/><path d="m270.631 166.975-5.234-14.392c-1.436-3.952-5.192-6.583-9.397-6.583s-7.961 2.631-9.397 6.583l-5.234 14.392c-53.762 7.177-95.369 53.331-95.369 109.025 0 1.827.047 3.642.136 5.447l-34.077 6.743c-5.418 1.072-8.94 6.333-7.868 11.751.942 4.763 5.121 8.061 9.799 8.061.644 0 1.297-.063 1.952-.192l32.995-6.529c4.369 18.507 13.424 35.224 25.841 48.822l-8.175 22.48c-1.888 5.189.79 10.928 5.98 12.814 5.19 1.892 10.928-.79 12.814-5.98l5.409-14.875c18.258 13.478 40.81 21.458 65.194 21.458s46.936-7.98 65.193-21.458l5.409 14.875c1.477 4.063 5.313 6.586 9.398 6.586 1.134 0 2.289-.195 3.416-.605 5.19-1.887 7.868-7.625 5.98-12.814l-8.175-22.48c17.867-19.566 28.779-45.584 28.779-74.104 0-5.92-.476-11.73-1.381-17.399l34.322-6.792c5.418-1.072 8.94-6.333 7.868-11.751s-6.334-8.943-11.751-7.868l-35.399 7.005c-13.597-38.182-47.721-66.705-89.028-72.22zm69.153 76.153-38.678 7.654-22.512-61.909c27.99 7.263 50.732 27.693 61.19 54.255zm-83.784-57.128c.09 0 .18.003.27.003l24.984 68.707-54.425 10.77 28.901-79.476c.09-.001.18-.004.27-.004zm-90 90c0-41.826 28.68-77.078 67.406-87.127l-29.507 81.144-37.88 7.496c-.008-.504-.019-1.007-.019-1.513zm2.576 21.394 27.335-5.409-13.175 36.23c-6.541-9.152-11.407-19.576-14.16-30.821zm87.424 68.606c-22.08 0-42.324-7.997-58-21.241l20.841-57.312 69.329-13.719 25.83 71.031c-15.676 13.244-35.92 21.241-58 21.241zm90-90c0 19.452-6.205 37.48-16.736 52.215l-21.242-58.415 36.964-7.314c.666 4.41 1.014 8.922 1.014 13.514z"/></svg>