<svg id="Capa_1" enable-background="new 0 0 512 512" height="512" viewBox="0 0 512 512" width="512" xmlns="http://www.w3.org/2000/svg"><path d="m502 452h-10v-30c0-5.522-4.477-10-10-10h-10v-30c0-5.522-4.477-10-10-10h-10v-30c0-5.522-4.477-10-10-10v-192c5.523 0 10-4.478 10-10v-30h20c5.523 0 10-4.478 10-10v-80c0-5.522-4.477-10-10-10h-192c-4.195 0-7.944 2.618-9.389 6.558l-6.165 16.813c-1.446 3.943-5.278 6.561-9.44 6.557l-24.955-.128c-.017 0-.034 0-.051 0-3.518 0-6.778 1.849-8.584 4.87l-30 50.2c-1.847 3.09-1.89 6.934-.114 10.064s5.098 5.066 8.698 5.066h16v30c0 5.522 4.477 10 10 10v192c-5.523 0-10 4.478-10 10v30h-76v-30c0-5.522-4.477-10-10-10v-112c0-3.788-2.14-7.25-5.528-8.944-3.388-1.695-7.442-1.328-10.472.944l-40 30c-2.518 1.889-4 4.853-4 8v82c-5.523 0-10 4.478-10 10v30h-10c-5.523 0-10 4.478-10 10v30h-10c-5.523 0-10 4.478-10 10v30h-10c-5.523 0-10 4.478-10 10v40c0 5.522 4.477 10 10 10h492c5.523 0 10-4.478 10-10v-40c0-5.522-4.477-10-10-10zm-206-80v-30c0-5.522-4.477-10-10-10v-192c5.523 0 10-4.478 10-10v-30h76v30c0 5.522 4.477 10 10 10v192c-5.523 0-10 4.478-10 10v30zm96-20h40v20h-40zm30-20h-20v-192h20zm10-212h-40v-20h40zm-196.344-70.171 19.247.099h.156c12.539 0 23.844-7.889 28.165-19.672l3.76-10.256h175.016v20h-70c-5.51 0-10 4.49-10 10s4.49 10 10 10h70v20h-244.375zm40.344 50.171v20h-40v-20zm-30 40h20v192h-20zm-10 212h40v20h-40zm-146-97 20-15v92h-20zm-10 97h40v20h-40zm-20 40h392v20h-392zm-20 40h432v20h-432zm452 60h-472v-20h472z"/><path d="m352 60c5.51 0 10-4.49 10-10s-4.49-10-10-10-10 4.49-10 10 4.49 10 10 10z"/></svg>