<svg fill="currentColor" fill-rule="evenodd" id="Capa_1" enable-background="new 0 0 512 512" height="512" viewBox="0 0 512 512" width="512" xmlns="http://www.w3.org/2000/svg"><path d="m502 0h-492c-5.523 0-10 4.478-10 10v492c0 5.522 4.477 10 10 10h492c5.523 0 10-4.478 10-10v-492c0-5.522-4.477-10-10-10zm-10 161.929-153.629.026-66.631-141.955h220.26zm-122.707 144.468 43.222 174.529-151.34-91.527c-1.591-.962-3.383-1.443-5.175-1.443s-3.584.481-5.175 1.443l-151.34 91.527 43.222-174.529c.813-3.28-.086-6.747-2.389-9.22l-107.336-115.245 146.998.024h.001c3.877 0 7.405-2.241 9.052-5.751l66.967-142.67 66.966 142.67c1.647 3.511 5.176 5.752 9.054 5.751l146.998-.024-107.336 115.246c-2.302 2.472-3.201 5.939-2.389 9.219zm22.885 185.603h-272.356l136.178-82.357zm-151.918-472-66.63 141.955-153.63-.026v-141.929zm-220.26 177.337 101.992 109.508-45.854 185.155h-56.138zm415.862 294.663-45.853-185.154 101.991-109.509v294.663z"/><path d="m256 256c-27.57 0-50 22.43-50 50s22.43 50 50 50 50-22.43 50-50-22.43-50-50-50zm0 80c-16.542 0-30-13.458-30-30s13.458-30 30-30 30 13.458 30 30-13.458 30-30 30z"/><path d="m256 236c5.51 0 10-4.49 10-10s-4.49-10-10-10-10 4.49-10 10 4.49 10 10 10z"/><path d="m316 216h-20c-5.51 0-10 4.49-10 10s4.49 10 10 10h20c5.51 0 10-4.49 10-10s-4.49-10-10-10z"/><path d="m226 226c0-5.51-4.49-10-10-10h-20c-5.51 0-10 4.49-10 10s4.49 10 10 10h20c5.51 0 10-4.49 10-10z"/><path d="m462 100c-5.51 0-10 4.49-10 10s4.49 10 10 10 10-4.49 10-10-4.49-10-10-10z"/><path d="m402 60h50v10c0 5.51 4.49 10 10 10s10-4.49 10-10v-20c0-2.641-1.07-5.21-2.93-7.07s-4.44-2.93-7.07-2.93h-60c-5.51 0-10 4.49-10 10 0 5.52 4.49 10 10 10z"/></svg>