<svg id="Capa_1" enable-background="new 0 0 512 512" height="512" viewBox="0 0 512 512" width="512" xmlns="http://www.w3.org/2000/svg"><circle cx="90" cy="382" r="10"/><circle cx="90" cy="342" r="10"/><circle cx="90" cy="462" r="10"/><circle cx="90" cy="302" r="10"/><circle cx="90" cy="422" r="10"/><path d="m70 212c5.51 0 10-4.49 10-10s-4.49-10-10-10-10 4.49-10 10 4.49 10 10 10z"/><path d="m110 212c5.51 0 10-4.49 10-10s-4.49-10-10-10-10 4.49-10 10 4.49 10 10 10z"/><path d="m502 252h-10v-90c0-5.522-4.477-10-10-10h-10v-30c0-5.522-4.477-10-10-10h-10v-60c0-5.522-4.477-10-10-10h-10v-32c0-5.522-4.477-10-10-10s-10 4.478-10 10v32h-10c-5.523 0-10 4.478-10 10v60h-10c-5.523 0-10 4.478-10 10v30h-10c-5.523 0-10 4.478-10 10v90h-10c-5.523 0-10 4.478-10 10v30h-152v-30c0-5.522-4.477-10-10-10h-10v-90c0-5.522-4.477-10-10-10h-10v-30c0-5.522-4.477-10-10-10h-10v-60c0-5.522-4.477-10-10-10h-10v-32c0-5.522-4.477-10-10-10s-10 4.478-10 10v32h-10c-5.523 0-10 4.478-10 10v60h-10c-5.523 0-10 4.478-10 10v30h-10c-5.523 0-10 4.478-10 10v90h-10c-5.523 0-10 4.478-10 10v240c0 5.522 4.477 10 10 10h160c5.523 0 10-4.478 10-10v-70.567c20.504-2.238 40.581-11.227 56.283-25.454 8.202-7.432 14.822-15.848 19.717-24.915 4.895 9.067 11.514 17.483 19.717 24.915 15.702 14.228 35.779 23.216 56.283 25.454v70.567c0 5.522 4.477 10 10 10h160c5.523 0 10-4.478 10-10v-240c0-5.522-4.477-10-10-10zm-90-190h20v50h-20zm-20 70h60v20h-60zm-20 40h100v80h-20v-10c0-5.51-4.49-10-10-10s-10 4.49-10 10v10h-20v-10c0-5.51-4.49-10-10-10s-10 4.49-10 10v10h-20zm-40 140v20h-152v-20zm-252-250h20v50h-20zm-20 70h60v20h-60zm-20 40h100v80h-20v-10c0-5.51-4.49-10-10-10s-10 4.49-10 10v10h-20v-10c0-5.51-4.49-10-10-10s-10 4.49-10 10v10h-20zm-20 100h20v220h-20zm40 220v-220h60v220zm100 0h-20v-220h20zm20-80.686v-59.314h65.139c-5.108 29.926-32.557 54.971-65.139 59.314zm86.861-59.314h65.139v59.314c-32.582-4.343-60.031-29.388-65.139-59.314zm85.139-80h20v220h-20zm40 220v-220h60v220zm100 0h-20v-220h20z"/><circle cx="422" cy="382" r="10"/><circle cx="422" cy="302" r="10"/><circle cx="422" cy="462" r="10"/><circle cx="422" cy="342" r="10"/><circle cx="422" cy="422" r="10"/><path d="m402 212c5.51 0 10-4.49 10-10s-4.49-10-10-10-10 4.49-10 10 4.49 10 10 10z"/><path d="m442 212c5.51 0 10-4.49 10-10s-4.49-10-10-10-10 4.49-10 10 4.49 10 10 10z"/></svg>