<svg id="Capa_1" enable-background="new 0 0 512 512" height="512" viewBox="0 0 512 512" width="512" xmlns="http://www.w3.org/2000/svg"><path d="m396 142c0-4.884-3.516-8.946-8.141-9.82l-55.759-37.792c-12.143-8.229-22.905-14.948-36.102-18.81v-13.578c0-16.542-13.458-30-30.001-30v-22c0-5.522-4.478-10-10-10-5.523 0-10 4.478-10 10v22c-16.542 0-30.001 13.458-30.001 30v13.471c-13.042 3.764-23.72 10.324-35.779 18.363l-59.77 39.846c-.012.008-.023.019-.035.027-2.6 1.755-4.281 4.763-4.405 7.899-.121 3.071 1.265 6.176 3.646 8.127l33.411 27.396c12.482 10.234 28.245 15.871 44.386 15.871h11.961l35.916 83.503-37.258 115.497h-2.073c-5.523 0-10 4.478-10 10 0 4.063 2.427 7.552 5.906 9.117l-13.188 40.883h-12.719c-5.523 0-10 4.478-10 10v40c0 5.522 4.477 10 10 10h160.003c5.523 0 10-4.478 10-10v-40c0-5.522-4.478-10-10-10h-12.718l-13.188-40.883c3.48-1.565 5.907-5.055 5.907-9.117 0-5.522-4.478-10-10-10h-2.073l-37.258-115.497 35.915-83.503h12.368c15.834 0 31.365-5.447 43.729-15.339l33.566-26.853c2.481-1.984 3.871-5.029 3.745-8.204-.002-.052-.012-.101-.015-.153.008-.15.024-.298.024-.451zm-160.003-70v-10c0-5.514 4.486-10 10-10h20c5.514 0 10 4.486 10 10v10h-6.835-26.832zm-4.814 121h14.813v34.44zm14.814 146.573v52.427h-16.912zm-23.364 72.427h23.364v40h-36.267zm103.365 80h-140.003v-20h140.003zm-60.001-40v-40h23.364l12.903 40zm16.912-60h-16.912v-52.427zm-16.912-164.559v-34.441h14.814zm80.189-65.397c-8.831 7.065-19.924 10.956-31.235 10.956h-18.954-80.002-18.545c-11.53 0-22.789-4.026-31.705-11.336l-11.785-9.664h62.036c5.51 0 10-4.49 10-10 0-5.521-4.49-10-10-10h-56.973l32.289-21.525c18.837-12.559 30.011-18.475 51.018-18.475h26.832c21.42 0 32.716 6.066 51.717 18.943l31.067 21.057h-55.949c-5.521 0-10 4.479-10 10 0 5.51 4.48 10 10 10h62.743z"/><path d="m255.997 132c-5.51 0-10 4.479-10 10 0 5.51 4.49 10 10 10s10-4.49 10-10c0-5.521-4.49-10-10-10z"/></svg>