<svg id="Capa_1" enable-background="new 0 0 512 512" height="512" viewBox="0 0 512 512" width="512" xmlns="http://www.w3.org/2000/svg"><path d="m432 452h-3.819l-40-80h3.819c5.522 0 10-4.478 10-10v-40c0-5.522-4.478-10-10-10h-29.561l-41.504-91.309c3.023-1.72 5.065-4.965 5.065-8.691v-40c0-5.522-4.478-10-10-10h-11.654l-18.507-101.789c-.864-4.755-5.006-8.211-9.839-8.211h-10v-42c0-5.522-4.478-10-10-10s-10 4.478-10 10v42h-10c-4.833 0-8.975 3.456-9.839 8.211l-18.507 101.789h-11.654c-5.522 0-10 4.478-10 10v40c0 3.726 2.043 6.97 5.065 8.691l-41.504 91.309h-29.561c-5.522 0-10 4.478-10 10v40c0 5.522 4.478 10 10 10h3.82l-40 80h-3.82c-11.028 0-20 8.972-20 20v30c0 5.522 4.478 10 10 10h120c5.522 0 10-4.478 10-10v-37.731l20.196-42.229c6.061-7.96 19.989-13.066 35.804-13.066s29.743 5.106 35.804 13.066l20.196 42.229v37.731c0 5.522 4.478 10 10 10h120c5.522 0 10-4.478 10-10v-30c0-11.028-8.972-20-20-20zm-187.654-380h23.309l16.363 90h-56.035zm-38.346 110h100v20h-100zm6.439 40h87.121l40.909 90h-30.026l-29.106-64.133c-1.622-3.572-5.183-5.867-9.106-5.867h-32.538c-3.927 0-7.49 2.298-9.109 5.876l-29.033 64.124h-30.021zm76.04 90h-64.976l22.638-50h19.646zm-158.479 20h252v20h-252zm302 160h-100v-30c0-1.475-.34-2.983-.979-4.314l-21.57-45.101c-.237-.495-.515-.971-.829-1.42-9.727-13.896-29.398-22.191-52.622-22.191s-42.896 8.296-52.622 22.191c-.314.449-.592.925-.829 1.42 0 0-21.558 45.076-21.57 45.101-.64 1.338-.979 2.832-.979 4.314v30h-100v-20h30c5.51 0 10-4.49 10-10s-4.49-10-10-10h-3.82l40-80h219.639l40 80h-3.819c-5.51 0-10 4.49-10 10s4.49 10 10 10h30z"/><path d="m150 452c-5.51 0-10 4.49-10 10s4.49 10 10 10 10-4.49 10-10-4.49-10-10-10z"/><path d="m362 452c-5.51 0-10 4.49-10 10s4.49 10 10 10 10-4.49 10-10-4.49-10-10-10z"/></svg>