<svg  id="Capa_1" enable-background="new 0 0 512 512" height="512" viewBox="0 0 512 512" width="512" xmlns="http://www.w3.org/2000/svg" fill="currentColor" fill-rule="evenodd"><path d="m50 216c5.51 0 10-4.49 10-10s-4.49-10-10-10-10 4.49-10 10 4.49 10 10 10z"/><path d="m90 216c5.51 0 10-4.49 10-10s-4.49-10-10-10-10 4.49-10 10 4.49 10 10 10z"/><path d="m462 216c5.51 0 10-4.49 10-10s-4.49-10-10-10-10 4.49-10 10 4.49 10 10 10z"/><path d="m422 216c5.51 0 10-4.49 10-10s-4.49-10-10-10-10 4.49-10 10 4.49 10 10 10z"/><path d="m502 136h-17.858l-17.071-17.071c-3.905-3.905-10.237-3.905-14.143 0l-17.07 17.071h-15.716l-17.072-17.071c-3.905-3.905-10.237-3.905-14.142 0l-17.071 17.071h-17.715l-17.071-17.071c-3.905-3.905-10.237-3.905-14.143 0l-17.07 17.071h-12.326l-29.799-36.341c-1.9-2.316-4.737-3.659-7.733-3.659s-5.833 1.343-7.732 3.659l-29.8 36.341h-14.326l-17.071-17.071c-3.905-3.905-10.237-3.905-14.143 0l-17.07 17.071h-15.716l-17.072-17.071c-3.905-3.905-10.237-3.905-14.142 0l-17.071 17.071h-17.715l-17.071-17.071c-3.905-3.905-10.237-3.905-14.143 0l-17.07 17.071h-15.858c-5.523 0-10 4.477-10 10v260c0 .033.005.065.005.098.022 2.43.978 4.846 2.615 6.639 1.867 2.047 4.607 3.263 7.38 3.263h492c2.716 0 5.408-1.169 7.27-3.144 1.723-1.828 2.73-4.341 2.73-6.856v-260c0-5.523-4.477-10-10-10zm-192 20c2.652 0 5.196-1.054 7.071-2.929l12.929-12.929 12.929 12.929c1.875 1.875 4.419 2.929 7.071 2.929h26c2.652 0 5.196-1.054 7.071-2.929l12.929-12.929 12.93 12.929c1.875 1.875 4.419 2.929 7.071 2.929h24c2.652 0 5.196-1.054 7.071-2.929l12.928-12.929 12.929 12.929c1.875 1.875 4.419 2.929 7.071 2.929h12v110h-20v-20c0-5.51-4.49-10-10-10s-10 4.49-10 10v20h-20v-20c0-5.51-4.49-10-10-10s-10 4.49-10 10v20h-11.868l-90.2-110zm-148.499 81.013 36.568 44.596-47.068 57.399-36.567-44.596zm12.933-15.771 32.065-39.103 36.569 44.596-32.066 39.104zm81.566 21.264 32.066 39.104-32.066 39.106-32.066-39.106zm12.932-15.771 36.569-44.596 32.065 39.103-36.568 44.596zm81.567 10.278 47.068 57.399-36.567 44.596-47.068-57.399zm-94.499-115.242 36.569 44.597-36.569 44.596-36.569-44.596zm-236 34.229h10c2.652 0 5.196-1.054 7.071-2.929l12.929-12.929 12.929 12.929c1.875 1.875 4.419 2.929 7.071 2.929h26c2.652 0 5.196-1.054 7.071-2.929l12.929-12.929 12.93 12.929c1.875 1.875 4.419 2.929 7.071 2.929h24c2.652 0 5.196-1.054 7.071-2.929l12.928-12.929 12.929 12.929c1.875 1.875 4.419 2.929 7.071 2.929h2.068l-90.2 110h-11.868v-20c0-5.51-4.49-10-10-10s-10 4.49-10 10v20h-20v-20c0-5.51-4.49-10-10-10s-10 4.49-10 10v20h-20zm0 130h75.468l-75.468 92.034zm11.132 110 70.37-85.816 36.567 44.596-33.801 41.22zm99.001 0 20.868-25.449 20.867 25.449zm33.8-41.22 47.068-57.4 32.066 39.106-47.067 57.401zm56.199 41.22 35.868-43.743 35.868 43.743zm48.8-59.513 32.066-39.106 47.068 57.4-32.066 39.106zm71.2 59.513 20.867-25.449 20.868 25.449zm67.6 0-33.801-41.22 36.567-44.596 70.37 85.816zm84.268-17.966-75.468-92.034h75.468z"/></svg>