<svg fill="currentColor" fill-rule="evenodd" id="Capa_1" enable-background="new 0 0 512 512" height="512" viewBox="0 0 512 512" width="512" xmlns="http://www.w3.org/2000/svg"><path d="m471.5 100c-2.299 0-4.54.151-6.725.411-.628-.182-1.271-.32-1.935-.376l-114.1-9.616-26.128-7.072c-.851-.23-1.73-.347-2.612-.347h-10.245l-13.47-10.755c3.011-6.705 4.715-14.256 4.715-22.245 0-27.57-20.187-50-45-50s-45 22.43-45 50c0 8.234 1.812 16.002 4.999 22.859l-10.141 10.141h-24.858c-20.486 0-52.012 11.103-53.344 11.576-.196.069-.378.162-.568.243-.12-.254-.222-.506-.299-.756l-77.556 5.966c-.687.053-1.354.192-2.003.379-2.185-.262-4.43-.409-6.73-.409-22.71.001-40.5 13.179-40.5 30.001s17.79 30 40.5 30c7.858 0 15.107-1.597 21.252-4.359 1.565 2.288 4.021 3.848 6.805 4.254l46.279 6.749 41.164 21.91v109.446c0 3.836 2.194 7.334 5.648 9.003l4.352 2.103v102.894h-10c-5.523 0-10 4.477-10 10v30h-20c-5.523 0-10 4.477-10 10v40c0 5.523 4.477 10 10 10h260c5.523 0 10-4.477 10-10v-40c0-5.523-4.477-10-10-10h-20v-30c0-5.523-4.477-10-10-10h-10v-17c1.851 0 3.696-.514 5.314-1.529 2.916-1.829 4.686-5.029 4.686-8.471v-91c0-3.66-1.999-7.027-5.211-8.779l-4.789-2.612v-88.146l51.208-27.825 46.235-6.743c2.777-.405 5.227-1.959 6.793-4.238 6.145 2.76 13.408 4.342 21.265 4.342 22.71 0 40.5-13.178 40.5-30s-17.791-29.999-40.501-29.999zm-215.5-80c13.785 0 25 13.458 25 30s-11.215 30-25 30-25-13.458-25-30 11.215-30 25-30zm-236 110c0-3.981 8.176-10 20.5-10 1.176 0 2.306.063 3.402.166l8.795 17.59c-3.292 1.336-7.427 2.244-12.197 2.244-12.324 0-20.5-6.019-20.5-10zm136 35.897-33.301-17.725c-1.016-.541-2.117-.902-3.256-1.068l-42.833-6.247-11.015-22.027 61.371-4.721 29.034 29.033zm-6.232-57.271c8.434-2.342 18.345-4.648 26.403-5.382l42.835 41.904c1.946 1.903 4.47 2.852 6.993 2.852 2.596 0 5.19-1.005 7.149-3.007 3.862-3.948 3.792-10.279-.155-14.142l-28.47-27.851h5.477c2.652 0 5.196-1.054 7.071-2.929l10.952-10.952c7.688 6.802 17.409 10.881 27.977 10.881 10.87 0 20.852-4.305 28.638-11.461l9.232 7.371-34.626 153.895c-.98 4.357 1.047 8.836 4.968 10.974l71.788 39.158v69.124l-160-77.333v-129.153l13.05 12.615c1.941 1.877 4.446 2.81 6.949 2.81 2.616 0 5.229-1.021 7.191-3.05 3.838-3.971 3.731-10.302-.24-14.14zm176.232 277.814v25.56h-20v-35.227zm-40-19.333v44.893h-20v-54.56zm-40-19.334v64.227h-20v-73.893zm-40-19.333v83.56h-20v-93.227zm-40 103.56h180v20h-180zm210 40v20h-240v-20zm59.391-331.142-42.833 6.247c-1.167.17-2.295.546-3.332 1.109l-43.226 23.487v-8.701c0-5.523-4.477-10-10-10s-10 4.477-10 10v108.7l-45.587-24.866 32.362-143.834h5.895l25.717 6.96c.58.157 1.173.261 1.772.312l100.297 8.453zm36.109-.858c-4.768 0-8.91-.902-12.201-2.238l8.793-17.586c1.1-.104 2.227-.177 3.408-.177 12.324 0 20.5 6.019 20.5 10s-8.176 10.001-20.5 10.001z"/><path d="m275.36 315.86c1.38.67 2.85 1.01 4.37 1.01 3.86 0 7.31-2.15 9-5.62 1.17-2.4 1.33-5.12.46-7.64-.87-2.53-2.68-4.56-5.08-5.73-1.38-.67-2.85-1.01-4.37-1.01-3.86 0-7.31 2.16-8.99 5.63-2.42 4.95-.35 10.95 4.61 13.36z"/><path d="m196 233v38c0 3.8 2.21 7.33 5.63 8.99l37.76 18.38c1.38.67 2.85 1.01 4.37 1.01 3.86 0 7.31-2.16 9-5.63 2.41-4.96.34-10.96-4.62-13.37l-32.14-15.64v-31.74c0-5.51-4.49-10-10-10s-10 4.49-10 10z"/><path d="m233.16 218.3c1.86 1.74 4.29 2.7 6.84 2.7 2.75 0 5.41-1.15 7.3-3.16 3.77-4.02 3.56-10.36-.46-14.14l-16-15c-1.86-1.74-4.29-2.7-6.84-2.7-2.75 0-5.41 1.15-7.3 3.16-1.82 1.95-2.78 4.49-2.7 7.16.09 2.67 1.21 5.15 3.16 6.97z"/></svg>