<svg fill="currentColor" fill-rule="evenodd" id="Capa_1" enable-background="new 0 0 512 512" height="512" viewBox="0 0 512 512" width="512" xmlns="http://www.w3.org/2000/svg"><path d="m501.989 376h-40.906c9.505-6.433 18.114-14.309 25.502-23.496 19.38-24.096 28.141-54.231 24.672-84.853-3.48-30.709-18.832-58.219-43.23-77.46-47.691-37.613-99.824-61.223-154.949-70.174-18.782-3.051-37.982-4.375-57.079-3.935-19.095-.439-38.296.884-57.079 3.935-55.125 8.951-107.257 32.561-154.949 70.174-24.397 19.241-39.75 46.75-43.23 77.46-3.47 30.622 5.292 60.756 24.672 84.853 7.388 9.186 15.997 17.062 25.502 23.495h-.908c-5.51 0-10 4.49-10 10s4.49 10 10 10h66.569.005 385.406c5.51 0 10-4.49 10-10 .002-5.509-4.488-9.999-9.998-9.999zm-385.41 0c-29.617-.001-57.165-13.133-75.581-36.03-16.009-19.905-23.247-44.789-20.383-70.067 2.874-25.365 15.568-48.097 35.742-64.007 44.993-35.485 94.037-57.737 145.77-66.137 17.648-2.865 35.695-4.101 53.635-3.676.158.004.317.004.476 0 17.943-.427 35.987.81 53.636 3.676 51.732 8.4 100.777 30.652 145.77 66.137 20.174 15.911 32.868 38.643 35.742 64.007 2.864 25.278-4.375 50.162-20.383 70.066-18.416 22.897-45.964 36.029-75.581 36.03-22.036.001-42.813-7.199-60.085-20.822-21.709-17.12-49.874-26.545-79.322-26.545-.021 0-.047 0-.069 0-29.438.015-57.594 9.442-79.281 26.545-17.273 13.623-38.048 20.823-60.082 20.823zm65.443 0c2.388-1.617 4.737-3.313 7.026-5.118 37.543-29.607 96.36-29.608 133.904 0 2.289 1.806 4.638 3.501 7.026 5.118z"/><path d="m10.011 376c-5.51 0-10 4.49-10 10s4.49 10 10 10 10-4.49 10-10-4.491-10-10-10z"/><path d="m343.476 331.86c7.55 5.97 15.99 10.55 25.069 13.64 8.769 2.99 17.929 4.5 27.219 4.5h.04c9.98 0 19.779-1.73 29.129-5.13 5.18-1.89 7.86-7.64 5.97-12.82-1.431-3.94-5.21-6.58-9.39-6.58-1.17 0-2.319.2-3.42.61-7.16 2.6-14.66 3.92-22.289 3.92-14.659-.01-28.468-4.79-39.948-13.84-1.779-1.41-3.92-2.15-6.189-2.15-3.08 0-5.94 1.39-7.85 3.81-3.421 4.33-2.671 10.63 1.659 14.04z"/><path d="m447.381 320.3c1.77 1.44 4 2.23 6.28 2.23h.01c3.02 0 5.86-1.35 7.759-3.7.011 0 .011 0 .011-.01 1.68-2.07 2.46-4.68 2.18-7.34-.28-2.65-1.58-5.04-3.65-6.72-1.779-1.44-4.01-2.23-6.29-2.23-3.04 0-5.87 1.35-7.779 3.7-3.471 4.29-2.811 10.6 1.479 14.07z"/></svg>