<svg fill="currentColor" fill-rule="evenodd" id="Capa_1" enable-background="new 0 0 512 512" height="512" viewBox="0 0 512 512" width="512" xmlns="http://www.w3.org/2000/svg"><path d="m510.106 305.145c-.548-.828-58.106-81.358-58.106-154.145 0 0 0-39.966 0-39.968v-.032c0-1.699-.45-3.417-1.286-4.896-.012-.021-.02-.044-.032-.065l-40-70c-1.78-3.116-5.093-5.039-8.682-5.039s-6.902 1.923-8.683 5.039l-40 70c-.012.021-.02.044-.032.065-.833 1.478-1.285 3.198-1.285 4.896v.034 9.966h-56c-5.51 0-10 4.49-10 10s4.49 10 10 10h56v20h-192v-20h56c5.51 0 10-4.49 10-10s-4.49-10-10-10h-56s0-9.966 0-9.968v-.032c0-1.728-.459-3.461-1.317-4.961l-40-70c-1.781-3.116-5.094-5.039-8.683-5.039s-6.902 1.923-8.683 5.039l-40 70c-.012.021-.02.044-.032.065-.833 1.479-1.285 3.196-1.285 4.896v.034 39.966c0 72.698-57.384 153.142-58.104 154.142-1.188 1.651-1.861 3.682-1.889 5.714 0 .048-.007.095-.007.144v40c0 5.523 4.477 10 10 10h40v110c0 5.523 4.477 10 10 10h100c5.523 0 10-4.477 10-10v-31.012c39.999-6.043 71.446-38.509 75.941-78.988h20.117c4.496 40.479 35.942 72.945 75.941 78.988v31.012c0 5.523 4.477 10 10 10h100c5.523 0 10-4.477 10-10v-110h40c5.523 0 10-4.477 10-10v-40c.001-.057.001-3-1.893-5.855zm-26.712-4.145h-31.394v-60.92c10.447 25.485 22.802 47.146 31.394 60.92zm-111.394-140h60v140h-60zm0-40h60v20h-60zm30-59.844 22.768 39.844h-45.536zm-50 119.844v120h-192v-120zm-212-40h-60v-20h60zm-60 20h60v140h-60zm30-99.844 22.768 39.844h-45.536zm-50 239.844h-31.394c8.592-13.774 20.948-35.435 31.394-60.92zm10 100h80v20h-80zm80-20h-80v-20h80zm0 80h-80v-20h80zm20-41.319v-58.681h55.774c-4.23 29.432-26.829 53.001-55.774 58.681zm116.226-58.681h55.774v58.681c-28.945-5.68-51.544-29.249-55.774-58.681zm155.774 60h-80v-20h80zm0 40h-80v-20h80zm0-80h-80v-20h80zm50-40h-472v-20h472z"/><circle cx="110" cy="271" r="10"/><circle cx="110" cy="191" r="10"/><circle cx="110" cy="231" r="10"/><circle cx="402" cy="271" r="10"/><circle cx="402" cy="231" r="10"/><circle cx="402" cy="191" r="10"/><path d="m256 141c5.51 0 10-4.49 10-10s-4.49-10-10-10-10 4.49-10 10 4.49 10 10 10z"/></svg>