<svg fill="currentColor" fill-rule="evenodd" id="Capa_1" enable-background="new 0 0 512 512" height="512" viewBox="0 0 512 512" width="512" xmlns="http://www.w3.org/2000/svg"><path d="m426 492c-5.521 0-10 4.49-10 10s4.479 10 10 10c5.51 0 10-4.49 10-10s-4.49-10-10-10z"/><path d="m386 492h-50v-30c0-2.138-.716-4.289-2-6l-28.092-37.456-3.495-126.544h3.587c5.522 0 10-4.477 10-10s-4.478-10-10-10h-4.14l-5.864-212.276c-.047-1.699-.544-3.411-1.421-4.869l-30-50c-1.807-3.012-5.062-4.855-8.575-4.855s-6.768 1.843-8.575 4.855c0 0-30.022 50.047-30.035 50.069-.849 1.447-1.34 3.121-1.386 4.8l-5.864 212.276h-4.14c-5.523 0-10 4.477-10 10s4.477 10 10 10h3.587l-3.496 126.544s-28.083 37.443-28.092 37.456c-1.283 1.711-2 3.86-2 6v30h-89.999c-5.51 0-10 4.49-10 10s4.49 10 10 10h300c5.51 0 10-4.49 10-10s-4.49-10-10-10zm-150.272-422h40.545l5.58 202h-51.705zm-6.133 222h52.811l.552 20h-53.915zm26.405-262.563 12.338 20.563h-24.676zm-32 398.563c1.242-1.655 1.939-3.655 1.996-5.724l2.494-90.276h55.02l2.494 90.276c.057 2.068.755 4.068 1.996 5.724l18 24h-100zm-28 64v-20h120v20z"/></svg>