<svg fill="currentColor" fill-rule="evenodd" id="Capa_1" enable-background="new 0 0 512 512" height="512" viewBox="0 0 512 512" width="512" xmlns="http://www.w3.org/2000/svg"><path d="m492 113.72v-11.722c0-5.523-4.478-10-10-10s-10 4.477-10 10v11.722c-11.639 4.128-20 15.243-20 28.28v310h-30v-190c0-18.604-12.767-34.282-30-38.734v-10.266c0-5.523-4.478-10-10-10s-10 4.477-10 10v10.266c-3.549.917-6.902 2.319-10 4.115v-73.981l5.674-19.859c9.43-33.004-4.353-68.697-33.517-86.799l-72.883-45.238c-3.23-2.005-7.316-2.005-10.547 0l-72.884 45.238c-29.164 18.102-42.946 53.795-33.517 86.799l5.674 19.86v73.981c-3.098-1.796-6.451-3.199-10-4.115v-10.267c0-5.523-4.478-10-10-10s-10 4.477-10 10v10.266c-17.233 4.452-30 20.13-30 38.734v190h-30v-310c0-13.036-8.361-24.152-20-28.28v-11.722c0-5.523-4.478-10-10-10s-10 4.477-10 10v11.722c-11.639 4.128-20 15.244-20 28.28v360c0 5.523 4.478 10 10 10h492c5.522 0 10-4.477 10-10v-360c0-13.036-8.361-24.152-20-28.28zm-110 128.28c11.028 0 20 8.972 20 20h-40c0-11.028 8.972-20 20-20zm-20 40h40v20h-40zm0 40h40v130h-40zm-173.61-258.265 67.61-41.965 67.61 41.965c21.608 13.412 31.819 39.858 24.833 64.312l-3.986 13.953h-176.914l-3.986-13.953c-6.987-24.454 3.224-50.9 24.833-64.312zm114.511 268.229c-10.976-12.112-26.313-22.499-43.188-29.249-2.385-.954-5.043-.954-7.428 0-16.874 6.75-32.212 17.137-43.188 29.249-12.492 13.788-19.097 29.265-19.097 44.757v75.279h-20v-210h172v210h-20v-75.279c0-15.492-6.604-30.969-19.099-44.757zm-.901 44.757v75.279h-92v-75.279c0-20.035 18.728-41.778 46-53.871 27.273 12.094 46 33.836 46 53.871zm-86-194.721h-46v-20h172v20h-46c-5.521 0-10 4.49-10 10s4.479 10 10 10h46v20h-172v-20h46c5.51 0 10-4.49 10-10s-4.49-10-10-10zm-86 60c11.028 0 20 8.972 20 20h-40c0-11.028 8.972-20 20-20zm-20 40h40v20h-40zm0 40h40v130h-40zm-90-180c0-5.514 4.486-10 10-10s10 4.486 10 10v10h-20zm0 30h20v80h-20zm0 100h20v80h-20zm0 100h20v80h-20zm472 120h-472v-20h472zm0-40h-20v-80h20zm0-100h-20v-80h20zm0-100h-20v-80h20zm0-100h-20v-10c0-5.514 4.486-10 10-10s10 4.486 10 10z"/><path d="m220 262h-20c-5.522 0-10 4.477-10 10v20c0 5.523 4.478 10 10 10s10-4.477 10-10v-10h10c5.522 0 10-4.477 10-10s-4.477-10-10-10z"/><path d="m322 272c0-5.523-4.478-10-10-10h-20c-5.522 0-10 4.477-10 10s4.478 10 10 10h10v10c0 5.523 4.478 10 10 10s10-4.477 10-10z"/><path d="m256 202c5.51 0 10-4.49 10-10s-4.49-10-10-10-10 4.49-10 10 4.49 10 10 10z"/></svg>