<svg fill="currentColor" fill-rule="evenodd" id="Capa_1" enable-background="new 0 0 512 512" height="512" viewBox="0 0 512 512" width="512" xmlns="http://www.w3.org/2000/svg"><path d="m502.579 179.048-92.711-5.376c-11.264-.653-22.369-2.889-33.007-6.646l-48.634-17.171c-9.182-3.242-18.734-5.528-28.391-6.796l-84.58-11.102-20.32-24.495c-7.429-8.957-18.364-14.225-29.999-14.454-11.612-.234-22.769 4.604-30.546 13.261l-21.766 24.228-10.967-.03c-.051 0-.099 0-.149 0-16.537 0-32.35 7.721-42.529 20.721l-19.818 17.844h-1.162c-20.953 0-38 17.045-38 37.995v201.974c0 5.522 4.477 9.999 10 9.999h492c5.523 0 10-4.477 10-9.999v-219.971c0-5.297-4.132-9.676-9.421-9.982zm-10.579 219.955h-426.467c9.552-18.535 26.955-44.192 45.913-44.192 23.508 0 36.579-5.905 47.081-10.649 6.621-2.991 11.404-5.152 17.438-5.152 10.13 0 27.352 15.214 36.339 26.011 3.526 4.249 9.831 4.838 14.081 1.311 4.251-3.525 4.838-9.829 1.313-14.079-2.823-3.402-28.255-33.241-51.733-33.241-10.342 0-18.135 3.521-25.672 6.926-9.658 4.363-19.646 8.875-38.846 8.875-18.831 0-36.614 12.289-52.856 36.527-7.121 10.628-12.3 21.172-15.213 27.661h-23.378v-191.973c0-9.923 8.074-17.997 17.999-17.998 9.017 0 13.511-3.581 20.086-9.62 4.918-4.517 9.367-9.513 14.174-14.144 6.673-6.431 14.665-12.482 23.938-14.363 6.646-1.348 14.071-.415 20.877-.396 2.838 0 5.542-1.206 7.439-3.317l24.757-27.558c3.889-4.329 9.481-6.714 15.273-6.631 5.818.115 11.285 2.749 15 7.227l11.807 14.233c-23.321 8.352-40.277 29.224-41.158 30.325-3.446 4.307-2.748 10.583 1.553 14.035 1.844 1.481 4.054 2.2 6.25 2.2 3.021 0 5.903-1.376 7.802-3.729.205-.254 20.115-24.645 42.057-26.181.299.068.602.123.908.163l88.47 11.613c8.277 1.087 16.465 3.046 24.335 5.825l48.634 17.171c12.41 4.381 25.366 6.99 38.507 7.753l83.292 4.829z"/><path d="m77.47 212.518c-1.153-.412-2.63-.383-3.601-.263-1.742.215-4.907 1.091-4.624 3.391l2.237 18.13-17.195 2.121s-2.215-17.951-2.237-18.129c-.285-2.307-3.594-2.378-5.312-2.167-1.769.219-4.914 1.027-4.622 3.392 0 0 5.53 44.815 5.571 45.149.282 2.287 3.629 2.446 5.319 2.237 1.725-.212 4.896-1.185 4.616-3.46l-2.46-19.937 17.195-2.121s2.438 19.762 2.46 19.936c.284 2.305 3.616 2.445 5.318 2.236 1.614-.198 4.897-1.183 4.616-3.461 0 0-5.531-44.827-5.571-45.15-.124-1.005-.821-1.586-1.71-1.904z"/><path d="m129.383 223.279c-.454-5.533-2.423-9.445-5.907-11.736-3.484-2.288-7.964-3.21-13.438-2.76-5.475.448-9.731 2.086-12.77 4.909-3.04 2.825-4.332 7.004-3.878 12.537l1.596 19.462c.454 5.534 2.409 9.447 5.868 11.738 3.458 2.293 7.924 3.213 13.399 2.764 5.474-.448 9.743-2.086 12.808-4.911 3.064-2.826 4.37-7.006 3.917-12.54zm-15.782 28.962c-5.321.436-8.2-2.019-8.639-7.368l-1.596-19.461c-.438-5.348 2.002-8.24 7.324-8.677 5.372-.44 8.277 2.014 8.716 7.361l1.595 19.462c.439 5.35-2.028 8.243-7.4 8.683z"/><path d="m171.768 248.88-18.78.559s-1.192-40.02-1.203-40.365c-.07-2.346-3.356-2.704-5.087-2.651-1.762.052-4.989.587-4.919 2.947 0 0 1.346 45.151 1.355 45.473.064 2.138 2.78 2.789 4.472 2.739 0 0 24.254-.722 24.398-.726 2.081-.062 2.936-2.289 2.883-4.077-.048-1.682-1.073-3.96-3.119-3.899z"/><path d="m213.54 257.299c.602-.767.936-1.816.985-2.731.096-1.789-.719-4.034-2.785-4.146l-18.761-1.008s2.149-39.994 2.166-40.325c.125-2.333-3.113-2.973-4.848-3.066-1.76-.094-5.022.179-5.148 2.527 0 0-2.422 45.065-2.441 45.426-.116 2.164 2.508 3.011 4.229 3.103 0 0 24.173 1.299 24.373 1.309.948.053 1.695-.407 2.23-1.089z"/><path d="m229.782 239.095c.127.206.164.517.107.932 0 0-2.34 17.335-2.36 17.478-.304 2.251 2.893 3.287 4.576 3.514 1.721.232 5.034.117 5.343-2.175l2.36-17.479c.043-.323.186-.61.427-.86l19.072-22.71c.184-.211.3-.501.351-.871.137-1.016-.469-1.994-1.819-2.929-2.084-1.445-5.517-2.755-7.458-.301l-14.381 18.471s-8.83-21.459-8.892-21.61c-1.197-2.909-4.899-2.558-7.347-1.699-1.55.545-2.393 1.326-2.53 2.342-.031.231.004.542.107.932z"/><path d="m308.405 270.535 21.871-41.138c.145-.261.239-.529.282-.806.41-2.628-3.787-4.277-5.753-4.584-1.324-.207-2.905-.076-3.551 1.286l-17.886 35.598-2.699-25.076c-.197-1.73-1.665-2.81-4.403-3.239-2.79-.436-4.542.139-5.258 1.727l-10.233 23.052s-6.106-39.055-6.153-39.358c-.479-3.065-5.402-2.587-7.418-1.906-1.481.501-2.297 1.234-2.449 2.202-.043.277-.037.561.022.854 0 0 8.205 45.582 8.254 45.85.468 2.598 3.743 3.704 5.991 4.055 2.126.333 5.755.311 6.79-2.054l7.867-17.896s1.943 19.395 1.946 19.432c.259 2.587 3.709 3.697 5.838 4.03 3.549.556 5.864-.119 6.942-2.029z"/><path d="m339.7 272.803c3.164 2.683 7.49 4.124 12.98 4.324 5.489.199 9.921-.924 13.298-3.37 3.375-2.445 5.166-6.442 5.367-11.992l.708-19.514c.202-5.549-1.293-9.666-4.483-12.35-3.19-2.682-7.53-4.125-13.019-4.325-5.49-.199-9.909.926-13.26 3.372s-5.126 6.444-5.328 11.993l-.708 19.515c-.201 5.549 1.28 9.665 4.445 12.347zm5.559-11.985.708-19.514c.195-5.362 2.959-7.947 8.295-7.753 5.387.195 7.982 2.975 7.788 8.337l-.708 19.514c-.194 5.363-2.985 7.946-8.372 7.751-5.336-.194-7.906-2.971-7.711-8.335z"/><path d="m387.467 229.694c-3.244 2.588-4.847 6.657-4.812 12.209l.124 19.528c.035 5.553 1.69 9.602 4.967 12.147 3.275 2.546 7.659 3.801 13.153 3.766 5.492-.035 9.873-1.346 13.142-3.933 3.268-2.587 4.886-6.656 4.851-12.209l-.124-19.528c-.035-5.552-1.705-9.6-5.005-12.147-3.302-2.545-7.699-3.8-13.191-3.765-5.494.035-9.862 1.347-13.105 3.932zm21.291 12.045.124 19.527c.034 5.366-2.644 8.065-8.034 8.1-5.339.034-8.025-2.631-8.059-7.997l-.124-19.528c-.034-5.365 2.617-8.065 7.957-8.1 5.39-.034 8.102 2.632 8.136 7.998z"/><path d="m431.642 275.832c.959.57 2.264.782 3.18.763l13.626-.275c5.491-.111 9.854-1.482 13.086-4.115 3.232-2.631 4.793-6.724 4.681-12.276l-.387-19.104c-.112-5.551-1.837-9.576-5.173-12.077-3.337-2.498-7.751-3.693-13.242-3.582l-13.627.275c-1.622.033-4.373.799-4.331 2.888 0 0 .915 45.197.922 45.553.019.89.544 1.522 1.265 1.95zm15.933-42.688c5.389-.108 8.137 2.52 8.246 7.885l.387 19.103c.108 5.366-2.532 8.101-7.921 8.211l-8.006.162-.712-35.199z"/><path d="m462 358.008h-20.04c-5.51 0-10 4.49-10 9.999s4.49 9.999 10 9.999h20.04c5.51 0 10-4.49 10-9.999s-4.48-9.989-9.98-9.999c-.01 0-.01 0-.02 0z"/><path d="m281.64 349.469c-5.099 0-9.455 3.981-9.95 9.038-.568 5.816 4.134 10.959 9.96 10.959 2.31 0 4.56-.81 6.35-2.28 4.26-3.5 4.87-9.819 1.36-14.068-1.9-2.319-4.72-3.649-7.72-3.649z"/><path d="m403.491 357.818c-6.921 0-13.859-7.987-18.268-12.384-5.99-5.975-11.607-12.444-18.764-17.085-17.437-11.308-37.401-7.401-55.2.654-5.009 2.289-7.229 8.227-4.941 13.246 2.135 4.684 8.325 7.199 13.252 4.941 11.49-5.3 24.02-9.021 35.622-2.001 6.756 4.088 12.012 10.177 17.503 15.851 7.495 7.743 16.833 14.858 27.744 16.547.51.069 1.03.109 1.54.109 4.697 0 9.102-3.544 9.87-8.469.841-5.45-2.909-10.559-8.358-11.409z"/><path d="m269.088 316.081-43-32.996c-4.382-3.363-10.66-2.536-14.021 1.844-3.362 4.38-2.537 10.657 1.845 14.019l43 32.996c1.816 1.393 3.957 2.068 6.081 2.068 3.002 0 5.972-1.347 7.94-3.913 3.362-4.38 2.537-10.656-1.845-14.018z"/></svg>