<svg fill="currentColor" fill-rule="evenodd" id="Capa_1" enable-background="new 0 0 512 512" height="512" viewBox="0 0 512 512" width="512" xmlns="http://www.w3.org/2000/svg"><path d="m356 172h-10v-20c0-2.487-.927-4.886-2.601-6.727l-17.399-19.139v-36.134c0-2.624-1.082-5.211-2.929-7.071l-57.071-57.072v-15.857c0-5.522-4.477-10-10-10s-10 4.478-10 10v15.857s-57.071 57.071-57.08 57.082c-1.832 1.867-2.92 4.439-2.92 7.061v36.134l-17.399 19.139c-1.674 1.841-2.601 4.24-2.601 6.727v20h-10c-5.523 0-10 4.478-10 10v200c0 5.522 4.477 10 10 10h10v110c0 5.522 4.477 10 10 10h160c5.523 0 10-4.478 10-10v-110h10c5.523 0 10-4.478 10-10v-200c0-5.522-4.477-10-10-10zm-150-72h100v20h-100zm50-55.857 35.858 35.857h-71.716zm-70 111.723 14.424-15.866h111.152l14.424 15.866v16.134h-140zm140 256.134h-30c-5.51 0-10 4.49-10 10s4.49 10 10 10h30v60h-20v-30c0-5.51-4.49-10-10-10s-10 4.49-10 10v30h-20v-30c0-5.51-4.49-10-10-10s-10 4.49-10 10v30h-20v-30c0-5.51-4.49-10-10-10s-10 4.49-10 10v30h-20v-60h30c5.51 0 10-4.49 10-10s-4.49-10-10-10h-30v-20h140zm20-40h-180v-180h180z"/><path d="m256 212c-38.598 0-70 31.402-70 70s31.402 70 70 70 70-31.402 70-70-31.402-70-70-70zm0 120c-27.57 0-50-22.43-50-50s22.43-50 50-50 50 22.43 50 50-22.43 50-50 50z"/><path d="m276 272h-9.986l.014-9.986c.007-5.522-4.463-10.006-9.986-10.014-.005 0-.009 0-.014 0-5.517 0-9.993 4.468-10 9.986l-.027 20c-.003 2.654 1.048 5.201 2.924 7.08 1.875 1.878 4.421 2.934 7.075 2.934h20c5.523 0 10-4.478 10-10s-4.477-10-10-10z"/><path d="m256 432c5.51 0 10-4.49 10-10s-4.49-10-10-10-10 4.49-10 10 4.49 10 10 10z"/></svg>