<svg fill="currentColor" fill-rule="evenodd" id="Capa_1" enable-background="new 0 0 512 512" height="512" viewBox="0 0 512 512" width="512" xmlns="http://www.w3.org/2000/svg"><circle cx="70" cy="382" r="10"/><circle cx="110" cy="382" r="10"/><circle cx="150" cy="382" r="10"/><path d="m150 412h-80c-5.523 0-10 4.478-10 10s4.477 10 10 10h80c5.523 0 10-4.478 10-10s-4.477-10-10-10z"/><path d="m432 452h-32c-5.523 0-10 4.478-10 10s4.477 10 10 10h32c5.523 0 10-4.478 10-10s-4.477-10-10-10z"/><path d="m250 472h32c5.523 0 10-4.478 10-10s-4.477-10-10-10h-32c-5.523 0-10 4.478-10 10s4.477 10 10 10z"/><path d="m402 422c0-5.51-4.49-10-10-10s-10 4.49-10 10 4.49 10 10 10 10-4.49 10-10z"/><path d="m432 432h30c5.51 0 10-4.49 10-10s-4.49-10-10-10h-30c-5.51 0-10 4.49-10 10s4.49 10 10 10z"/><path d="m242 422c0 5.51 4.49 10 10 10s10-4.49 10-10-4.49-10-10-10-10 4.49-10 10z"/><path d="m282 422c0 5.51 4.49 10 10 10h50c5.51 0 10-4.49 10-10s-4.49-10-10-10h-50c-5.51 0-10 4.49-10 10z"/><path d="m250 392h52c5.523 0 10-4.478 10-10s-4.477-10-10-10h-52c-5.523 0-10 4.478-10 10s4.477 10 10 10z"/><path d="m370 392h22c5.523 0 10-4.478 10-10s-4.477-10-10-10h-22c-5.523 0-10 4.478-10 10s4.477 10 10 10z"/><path d="m277.162 64.513-12-4c-5.237-1.747-10.903 1.086-12.649 6.325-1.747 5.239 1.085 10.902 6.325 12.649l12 4c1.049.35 2.115.516 3.164.516 4.187 0 8.089-2.65 9.485-6.841 1.746-5.239-1.085-10.902-6.325-12.649z"/><path d="m268.425 103.299-4-1c-5.359-1.342-10.787 1.919-12.127 7.275-1.339 5.358 1.918 10.788 7.276 12.127l4 1c.814.204 1.63.301 2.433.301 4.481 0 8.558-3.033 9.694-7.576 1.34-5.359-1.918-10.788-7.276-12.127z"/><path d="m502 300c5.523 0 10-4.478 10-10v-180c0-5.522-4.477-10-10-10h-10s0-39.938 0-40c0-3.449-1.87-6.594-4.7-8.48l-80-50c-3.242-2.025-7.357-2.025-10.6 0l-58.615 36.634-112.923-37.641c-3.049-1.015-6.401-.506-9.009 1.375-2.608 1.88-4.153 4.897-4.153 8.112v130c0 4.305 2.754 8.126 6.838 9.487l31.074 10.358-60.706 49.866-73.906-46.192c-3.242-2.025-7.357-2.025-10.6 0l-80 50c-2.861 1.79-4.7 5.107-4.7 8.48v60h-10c-5.523 0-10 4.478-10 10v210c0 5.522 4.477 10 10 10h492c5.523 0 10-4.478 10-10v-159.999c0-5.522-4.477-10-10-10h-218.526l23.579-32zm-100-278.207 45.132 28.207h-90.264zm-70 48.207h140v30h-10c-5.523 0-10 4.478-10 10v20.707h-20v-20.707c0-5.522-4.477-10-10-10h-40c-5.523 0-10 4.478-10 10v20.707h-20v-20.707c0-5.522-4.477-10-10-10h-10zm10 80.707h40c5.523 0 10-4.478 10-10v-20.707h20v20.707c0 5.522 4.477 10 10 10h40c5.523 0 10-4.478 10-10v-20.707h20v160h-180v-150-10h20v20.707c0 5.522 4.477 10 10 10zm-232 33.086 45.132 28.207h-90.264zm-70 48.207h140v50h-10c-5.523 0-10 4.478-10 10v20.707h-20v-20.707c0-5.522-4.477-10-10-10h-40c-5.523 0-10 4.478-10 10v20.707h-20v-20.707c0-5.522-4.477-10-10-10h-10zm160 260h-180v-190h20v20.707c0 5.522 4.477 10 10 10h40c5.523 0 10-4.478 10-10v-20.707h20v20.707c0 5.522 4.477 10 10 10h40c5.523 0 10-4.478 10-10v-20.707h20zm292-140v140h-272v-140zm-200-65.286-33.369 45.286h-38.631v-40c0-5.522-4.477-10-10-10h-10v-55.273l92-75.571zm0-176.714v15.273l-23.831 19.576-36.169-12.057v-108.918l84.129 28.043c-2.509 1.826-4.068 4.814-4.12 7.917-.002.056-.009.11-.009.166v40h-10c-5.523 0-10 4.477-10 10z"/><circle cx="442" cy="190" r="10"/><circle cx="402" cy="190" r="10"/><circle cx="362" cy="190" r="10"/><path d="m362 240h80c5.523 0 10-4.478 10-10s-4.477-10-10-10h-80c-5.523 0-10 4.478-10 10s4.477 10 10 10z"/><path d="m230.01 255c2.28 0 4.52-.8 6.3-2.24l.77-.63c2.07-1.68 3.37-4.07 3.64-6.73.28-2.659-.5-5.26-2.18-7.34-1.91-2.34-4.74-3.689-7.77-3.689-2.29 0-4.52.79-6.3 2.239l-.78.631c-4.27 3.479-4.93 9.79-1.45 14.069 1.91 2.339 4.74 3.69 7.77 3.69z"/><path d="m261.83 229.149c2.28 0 4.52-.8 6.3-2.239 2.07-1.69 3.36-4.08 3.64-6.74.27-2.65-.5-5.26-2.19-7.33-1.91-2.35-4.74-3.7-7.77-3.7-2.28 0-4.52.8-6.29 2.24-2.08 1.689-3.37 4.08-3.65 6.729-.27 2.66.5 5.271 2.19 7.341 1.91 2.35 4.74 3.699 7.77 3.699z"/><path d="m244.311 286.433c1.911 1.721 4.303 2.567 6.686 2.567 2.736 0 5.462-1.116 7.437-3.311l9-10c3.694-4.104 3.362-10.428-.744-14.122-4.105-3.696-10.428-3.362-14.123.743l-9 10c-3.694 4.105-3.362 10.428.744 14.123z"/></svg>